<svg width="24" height="24" viewBox="0 0 24 24" fill="none" xmlns="http://www.w3.org/2000/svg">
<path d="M10.0991 0C4.52147 0 0.000126238 4.52185 0 10.0991C0 15.6763 4.52147 20.1981 10.0991 20.1981C12.4177 20.1981 14.5936 19.3788 16.2984 18.0647L21.8155 23.6305C22.3086 24.1229 23.1372 24.1229 23.6303 23.6305C24.1232 23.1369 24.1232 22.3088 23.6303 21.8152L18.0682 16.291C19.3821 14.5868 20.1981 12.4181 20.1981 10.0991C20.1981 4.52185 15.6766 0 10.0991 0ZM10.0991 2.52477C14.2822 2.52477 17.6732 5.91553 17.6733 10.0991C17.6733 14.2826 14.2822 17.6734 10.0991 17.6734C5.9159 17.6734 2.52489 14.2826 2.52476 10.0991C2.52476 5.91553 5.9159 2.52477 10.0991 2.52477Z" fill="url(#paint0_linear_1566_10862)"/>
<defs>
<linearGradient id="paint0_linear_1566_10862" x1="0" y1="0" x2="28" y2="24" gradientUnits="userSpaceOnUse">
<stop stop-color="#134EED"/>
<stop offset="1" stop-color="#043EAE"/>
</linearGradient>
</defs>
</svg>
