<svg width="120" height="82" viewBox="0 0 120 82" fill="none" xmlns="http://www.w3.org/2000/svg">
<mask id="mask0_2548_9523" style="mask-type:alpha" maskUnits="userSpaceOnUse" x="0" y="0" width="120" height="82">
<rect width="120" height="82" rx="6" fill="white"/>
</mask>
<g mask="url(#mask0_2548_9523)">
<ellipse cx="11.9161" cy="29.862" rx="11.9161" ry="29.862" transform="matrix(0.924814 0.380421 -0.367495 0.930026 71.3136 3)" fill="#F8B970"/>
<path fill-rule="evenodd" clip-rule="evenodd" d="M60.798 63.2256C66.7009 61.6923 74.2257 52.427 79.2 39.8384C85.2609 24.5002 85.2402 10.0365 79.154 7.53289C79.0187 7.47725 78.8816 7.42798 78.7427 7.385C80.032 7.05009 81.2439 7.08408 82.335 7.53289C88.4213 10.0365 88.4419 24.5002 82.3811 39.8384C76.4549 54.8358 66.9089 65.1164 60.798 63.2256Z" fill="#F0AA6A"/>
<path fill-rule="evenodd" clip-rule="evenodd" d="M60.6769 29.8236C61.2946 28.3147 61.9485 26.8562 62.6311 25.456L71.143 29.1031C72.3574 29.6235 72.9343 31.0358 72.4314 32.2576C71.9285 33.4795 70.5363 34.0481 69.3218 33.5277L60.6769 29.8236Z" fill="#E8A352"/>
<ellipse cx="11.9161" cy="29.862" rx="11.9161" ry="29.862" transform="matrix(0.924814 0.380421 -0.367495 0.930026 48.4149 5.55371)" fill="#FBCE9A"/>
<path fill-rule="evenodd" clip-rule="evenodd" d="M38.3537 65.8964C44.3296 64.7997 52.1594 55.3589 57.2831 42.3921C63.344 27.0539 63.3234 12.5902 57.2371 10.0866C56.9561 9.97101 56.667 9.88293 56.3707 9.82159C57.4637 9.621 58.4946 9.69951 59.4356 10.0866C65.5219 12.5902 65.5425 27.0539 59.4817 42.3921C53.7007 57.0222 44.4749 67.1637 38.3537 65.8964Z" fill="#EFBD81"/>
<path fill-rule="evenodd" clip-rule="evenodd" d="M62.7979 38.3442H27.803V90.9999H64.9184V90.9998H74.9348C78.3831 90.9998 81.1786 88.2044 81.1786 84.756V64.3227C83.8484 61.6291 85.4206 58.3248 85.4206 54.754C85.4206 46.2099 76.4183 39.1908 64.9184 38.4154V38.3442H62.7979Z" fill="#E8A352"/>
<path fill-rule="evenodd" clip-rule="evenodd" d="M64.9185 90.9999H53.2537V90.9998H63.2703C66.7187 90.9998 69.5142 88.2044 69.5142 84.756V68.4816C69.514 68.4741 69.5139 68.4666 69.5139 68.4591C69.5139 66.2951 57.8491 64.9126 52.0166 64.4919H69.5139L69.5142 64.4919V64.3221C72.1836 61.6287 73.7556 58.3245 73.7556 54.754C73.7556 46.2099 64.7534 39.1909 53.2537 38.4154V38.3442H62.798H64.9185V38.4154C76.4184 39.1908 85.4207 46.2099 85.4207 54.754C85.4207 58.3248 83.8485 61.6291 81.1787 64.3227V84.756C81.1787 88.2044 78.3833 90.9998 74.9349 90.9998H64.9185V90.9999Z" fill="#DC893C"/>
<path fill-rule="evenodd" clip-rule="evenodd" d="M46.8912 64.3224C49.5608 61.6289 51.1329 58.3246 51.1329 54.754C51.1329 45.6912 41.0044 38.3442 28.5102 38.3442C16.016 38.3442 5.88745 45.6912 5.88745 54.754C5.88745 58.3246 7.45962 61.6289 10.1292 64.3224V84.756C10.1292 88.2044 12.9247 90.9998 16.373 90.9998H40.6473C44.0957 90.9998 46.8912 88.2044 46.8912 84.756V64.3224Z" fill="#FFE9C9"/>
<path fill-rule="evenodd" clip-rule="evenodd" d="M45.124 64.0592C48.0006 61.5046 49.719 58.2713 49.719 54.7548C49.719 46.4886 40.2235 39.7876 28.5102 39.7876C16.7969 39.7876 7.30139 46.4886 7.30139 54.7548C7.30139 58.1249 8.87977 61.2349 11.5433 63.7367V83.3142C11.5433 86.7625 14.3388 89.558 17.7871 89.558H38.8801C42.3285 89.558 45.124 86.7625 45.124 83.3142V64.0592Z" fill="#FFF9F1"/>
<path fill-rule="evenodd" clip-rule="evenodd" d="M41.6061 24.5385C42.428 23.0791 43.2781 21.703 44.1457 20.4217L52.4528 23.981C53.6673 24.5014 54.2442 25.9137 53.7413 27.1356C53.2384 28.3574 51.8462 28.926 50.6317 28.4057L41.6061 24.5385Z" fill="#FFE9C9"/>
<path fill-rule="evenodd" clip-rule="evenodd" d="M37.7121 32.4583C38.3299 30.9493 38.9838 29.4909 39.6664 28.0907L48.1784 31.7379C49.3929 32.2582 49.9698 33.6706 49.4669 34.8924C48.964 36.1142 47.5718 36.6829 46.3573 36.1625L37.7121 32.4583Z" fill="#FFE9C9"/>
<path fill-rule="evenodd" clip-rule="evenodd" d="M64.5712 21.9035C65.393 20.4441 66.2431 19.0681 67.1107 17.7867L75.4177 21.346C76.6322 21.8664 77.2091 23.2787 76.7062 24.5006C76.2033 25.7224 74.8111 26.291 73.5966 25.7707L64.5712 21.9035Z" fill="#E8A352"/>
<ellipse cx="14.901" cy="58.3614" rx="0.883701" ry="0.901637" fill="#FFEFD7"/>
<ellipse cx="16.8453" cy="51.3275" rx="0.706961" ry="0.72131" fill="#FFEFD7"/>
<ellipse cx="22.6775" cy="53.3118" rx="0.883701" ry="0.901637" fill="#FFEFD7"/>
<ellipse cx="0.894951" cy="0.890472" rx="0.894951" ry="0.890472" transform="matrix(0.6048 0.796377 -0.78446 0.620179 60.6598 43.355)" fill="#FFF9F1"/>
<ellipse cx="0.71596" cy="0.712378" rx="0.71596" ry="0.712378" transform="matrix(0.6048 0.796377 -0.78446 0.620179 67.2681 40.8689)" fill="#FFF9F1"/>
<ellipse cx="0.894951" cy="0.890472" rx="0.894951" ry="0.890472" transform="matrix(0.6048 0.796377 -0.78446 0.620179 69.335 46.5347)" fill="#FFF9F1"/>
</g>
</svg>
