<svg width="20" height="20" viewBox="0 0 20 20" fill="none" xmlns="http://www.w3.org/2000/svg">
<path d="M0.458984 8.11328C0.458984 12.4102 3.95508 15.9062 8.25195 15.9062C9.95117 15.9062 11.5039 15.3594 12.7832 14.4414L17.5879 19.2559C17.8125 19.4805 18.1055 19.5879 18.418 19.5879C19.082 19.5879 19.541 19.0898 19.541 18.4355C19.541 18.123 19.4238 17.8398 19.2188 17.6348L14.4434 12.8301C15.4492 11.5215 16.0449 9.89062 16.0449 8.11328C16.0449 3.81641 12.5488 0.320312 8.25195 0.320312C3.95508 0.320312 0.458984 3.81641 0.458984 8.11328ZM2.12891 8.11328C2.12891 4.73438 4.87305 1.99023 8.25195 1.99023C11.6309 1.99023 14.375 4.73438 14.375 8.11328C14.375 11.4922 11.6309 14.2363 8.25195 14.2363C4.87305 14.2363 2.12891 11.4922 2.12891 8.11328Z" fill="#3C3C43"/>
</svg>
