<svg width="18" height="23" viewBox="0 0 18 23" fill="none" xmlns="http://www.w3.org/2000/svg">
<path fill-rule="evenodd" clip-rule="evenodd" d="M17.985 8.64494C17.985 3.87047 13.9589 0 8.99251 0C4.02609 0 1.14044e-05 3.87047 1.14044e-05 8.64494C-0.00590773 13.0522 2.29368 15.517 3.64077 16.7811L6.14146 19.5967C7.31266 21.0007 8.62862 22.5 8.99251 22.5C9.36062 22.5 10.5264 21.0847 11.6532 19.7165L11.6533 19.7165C11.6836 19.6797 11.7139 19.6429 11.7442 19.6061L13.8975 17.1816L13.8939 17.1789C16.3606 14.6131 18.185 11.6216 17.985 8.64494Z" fill="#A3A3A3"/>
<path d="M7.41003 3.93701C6.91297 4.60827 6.7887 5.64566 7.90709 6.0118C8.27989 5.68635 8.71482 4.73031 7.41003 3.93701Z" fill="white"/>
<path d="M8.59057 5.88989C8.09351 6.4391 7.84519 7.52532 8.98844 7.96469C9.36123 7.63923 9.83323 6.71981 8.59057 5.88989Z" fill="white"/>
<path d="M11.3511 7.79905C10.8253 7.27631 9.73772 6.96258 9.21725 8.05459C9.52378 8.44105 10.4274 8.9632 11.3511 7.79905Z" fill="white"/>
<path d="M5.60984 5.78781C5.72687 6.38105 6.25581 7.41743 7.43533 6.81701C7.47049 6.302 7.15462 5.37514 5.60984 5.78781Z" fill="white"/>
<path d="M5.44201 8.63934C5.85674 8.20862 6.152 7.03561 4.88408 6.64598C4.48981 6.98728 4.17915 8.14759 5.44201 8.63934Z" fill="white"/>
<path d="M3.37141 8.75812C3.50694 9.34755 4.07521 10.3702 5.23539 9.73448C5.25442 9.21865 4.6762 8.14788 3.37141 8.75812Z" fill="white"/>
<path d="M3.66627 11.6337C4.17914 11.6872 5.42179 11.5652 5.17326 10.2227C4.66021 10.0112 3.55781 10.3447 3.66627 11.6337Z" fill="white"/>
<path d="M5.62982 11.2693C5.05715 11.4981 4.30341 12.1754 4.97448 13.2354C5.4218 13.1517 6.47805 12.4805 5.62982 11.2693Z" fill="white"/>
<path d="M6.90831 13.6689C7.31763 13.1973 7.84703 12.1057 6.69006 11.5122C6.25646 11.8088 5.69307 12.6553 6.90831 13.6689Z" fill="white"/>
<path d="M6.29165 7.53752C6.56352 8.09447 7.3375 8.95051 8.3539 8.12836C8.25398 7.61762 7.65858 6.68319 6.29165 7.53752Z" fill="white"/>
<path d="M7.09939 10.4669C7.72641 10.4195 8.91329 10.0758 8.50061 8.84774C7.97966 8.75446 6.78298 8.90623 7.09939 10.4669Z" fill="white"/>
<path d="M11.363 10.141C11.3168 9.52506 10.9707 8.35827 9.71898 8.75961C9.62232 9.27095 9.77297 10.4467 11.363 10.141Z" fill="white"/>
<path d="M12.2891 7.78727C11.7728 8.13991 10.9263 9.02635 11.9152 9.88028C12.4125 9.70172 13.3663 8.97588 12.2891 7.78727Z" fill="white"/>
<path d="M13.797 6.98909C13.2377 7.27146 12.2792 8.03997 13.1442 9.01502C13.6612 8.90273 14.7045 8.30736 13.797 6.98909Z" fill="white"/>
<path d="M14.8039 9.67336C14.3376 9.25889 13.2557 8.63817 12.6317 9.77698C12.921 10.2126 13.934 10.8938 14.8039 9.67336Z" fill="white"/>
<path d="M14.6003 11.9251C14.4563 11.3239 13.925 10.2095 12.7528 10.7985C12.7389 11.3184 13.1785 12.4442 14.6003 11.9251Z" fill="white"/>
<path d="M12.9152 13.1976C13.0964 12.6061 13.2032 11.38 11.8881 11.3149C11.6116 11.7584 11.4196 12.9494 12.9152 13.1976Z" fill="white"/>
<path d="M10.6169 13.5821C11.1485 13.2522 12.0476 12.3951 11.098 11.4992C10.5931 11.6561 9.65314 12.4317 10.6169 13.5821Z" fill="white"/>
<path d="M6.22952 8.39168C5.73245 8.81886 5.16344 9.8239 6.30311 10.4716C6.75536 10.2011 7.41004 9.24602 6.22952 8.39168Z" fill="white"/>
<path d="M9.50403 3.961C9.01637 4.31394 8.15564 5.34078 9.33617 6.07305C9.70896 5.88999 10.5167 5.15771 9.50403 3.961Z" fill="white"/>
<path d="M11.4561 4.86217C10.8558 4.94209 9.89535 5.2187 10.206 6.62225C10.7136 6.68373 11.8836 6.19507 11.4561 4.86217Z" fill="white"/>
<path d="M13.0306 6.41412C12.5049 6.07283 11.2001 5.82874 11.061 7.12981C11.5729 7.41534 12.3698 7.79019 13.0306 6.41412Z" fill="white"/>
<path d="M9.14977 8.45322C9.00065 8.01385 8.77697 8.20915 8.77697 8.45323C8.77697 11.1993 8.46631 10.7721 8.40418 10.8942C8.36488 10.9714 7.21594 10.9331 6.47806 10.7721C5.91886 10.6501 5.62621 10.5168 5.85673 10.8942C6.04313 11.1993 8.40417 11.5654 8.52844 11.5654C8.62785 11.5654 8.65271 11.6468 8.65271 11.6875C8.59057 12.7452 8.46631 14.8729 8.46631 14.9217C8.46631 14.9705 8.38346 15.2268 8.34204 15.3489H9.52257C9.48114 15.3082 9.3983 15.2146 9.3983 15.1658C9.3983 15.1048 9.14977 11.5654 9.2119 11.5654C9.27403 11.5654 12.1321 10.7721 12.3185 10.6501C12.5049 10.528 12.4428 10.406 12.3807 10.3449C12.3185 10.2839 12.2564 10.2839 12.1943 10.2839C12.1321 10.2839 9.83323 10.8331 9.64683 10.8331C9.46043 10.8331 9.2119 10.7721 9.2119 10.7111C9.2119 10.6623 9.17048 9.1855 9.14977 8.45322Z" fill="#D9D9D9"/>
<path d="M9.14977 8.45322C9.00065 8.01385 8.77697 8.20915 8.77697 8.45323C8.77697 11.1993 8.46631 10.7721 8.40418 10.8942C8.36488 10.9714 7.21594 10.9331 6.47806 10.7721C5.91886 10.6501 5.62621 10.5168 5.85673 10.8942C6.04313 11.1993 8.40417 11.5654 8.52844 11.5654C8.62785 11.5654 8.65271 11.6468 8.65271 11.6875C8.59057 12.7452 8.46631 14.8729 8.46631 14.9217C8.46631 14.9705 8.38346 15.2268 8.34204 15.3489H9.52257C9.48114 15.3082 9.3983 15.2146 9.3983 15.1658C9.3983 15.1048 9.14977 11.5654 9.2119 11.5654C9.27403 11.5654 12.1321 10.7721 12.3185 10.6501C12.5049 10.528 12.4428 10.406 12.3807 10.3449C12.3185 10.2839 12.2564 10.2839 12.1943 10.2839C12.1321 10.2839 9.83323 10.8331 9.64683 10.8331C9.46043 10.8331 9.2119 10.7721 9.2119 10.7111C9.2119 10.6623 9.17048 9.1855 9.14977 8.45322Z" fill="white"/>
</svg>
