<svg width="18" height="23" viewBox="0 0 18 23" fill="none" xmlns="http://www.w3.org/2000/svg">
<path fill-rule="evenodd" clip-rule="evenodd" d="M8.99251 -1.90735e-06C13.9589 -1.90735e-06 17.985 3.87047 17.985 8.64494C18.185 11.6216 16.3606 14.6131 13.8939 17.1789L13.8975 17.1816L11.7442 19.6061L11.6533 19.7165L11.6532 19.7165C10.5264 21.0847 9.36062 22.5 8.99251 22.5C8.62862 22.5 7.31266 21.0007 6.14146 19.5967L3.64077 16.7811C2.29368 15.517 -0.00590773 13.0522 1.14044e-05 8.64494C1.14044e-05 3.87047 4.02609 -1.90735e-06 8.99251 -1.90735e-06ZM7.41004 3.9371C6.91297 4.60836 6.78871 5.64575 7.9071 6.01189C8.2799 5.68644 8.71483 4.7304 7.41004 3.9371ZM8.59057 5.88987C8.09351 6.43908 7.84519 7.5253 8.98844 7.96466C9.36123 7.63921 9.83323 6.71979 8.59057 5.88987ZM11.3511 7.79916C10.8253 7.27642 9.73771 6.96269 9.21724 8.0547C9.52377 8.44116 10.4274 8.96331 11.3511 7.79916ZM5.60985 5.78787C5.72688 6.38111 6.25582 7.41749 7.43534 6.81708C7.47051 6.30207 7.15463 5.37521 5.60985 5.78787ZM5.44199 8.63943C5.85672 8.20871 6.15198 7.0357 4.88407 6.64607C4.48979 6.98737 4.17914 8.14767 5.44199 8.63943ZM3.37141 8.75807C3.50695 9.3475 4.07521 10.3702 5.23539 9.73444C5.25443 9.21861 4.6762 8.14784 3.37141 8.75807ZM3.66626 11.6338C4.17914 11.6873 5.42179 11.5653 5.17326 10.2228C4.6602 10.0113 3.55781 10.3448 3.66626 11.6338ZM5.62983 11.2692C5.05716 11.498 4.30341 12.1753 4.97448 13.2353C5.4218 13.1516 6.47805 12.4804 5.62983 11.2692ZM6.90831 13.669C7.31762 13.1974 7.84702 12.1058 6.69005 11.5123C6.25645 11.8089 5.69307 12.6554 6.90831 13.669ZM6.29165 7.53759C6.56351 8.09453 7.3375 8.95057 8.3539 8.12842C8.25397 7.61769 7.65857 6.68326 6.29165 7.53759ZM7.09938 10.4668C7.72639 10.4194 8.91327 10.0757 8.50059 8.84766C7.97964 8.75438 6.78297 8.90614 7.09938 10.4668ZM11.363 10.1411C11.3167 9.52512 10.9707 8.35834 9.71898 8.75967C9.62231 9.27101 9.77296 10.4468 11.363 10.1411ZM12.289 7.78716C11.7727 8.1398 10.9263 9.02624 11.9152 9.88017C12.4125 9.70161 13.3663 8.97577 12.289 7.78716ZM13.797 6.98904C13.2377 7.27141 12.2792 8.03993 13.1442 9.01497C13.6612 8.90268 14.7045 8.30732 13.797 6.98904ZM14.8039 9.67325C14.3376 9.25878 13.2557 8.63806 12.6317 9.77686C12.921 10.2125 13.934 10.8937 14.8039 9.67325ZM14.6003 11.9252C14.4563 11.3239 13.925 10.2095 12.7528 10.7985C12.7389 11.3184 13.1785 12.4443 14.6003 11.9252ZM12.9152 13.1976C13.0964 12.6061 13.2032 11.38 11.8881 11.3149C11.6116 11.7585 11.4196 12.9494 12.9152 13.1976ZM10.6169 13.582C11.1485 13.2521 12.0476 12.395 11.098 11.4991C10.5931 11.656 9.65314 12.4316 10.6169 13.582ZM6.22952 8.39175C5.73246 8.81892 5.16345 9.82396 6.30312 10.4717C6.75537 10.2012 7.41004 9.24608 6.22952 8.39175ZM9.50402 3.96095C9.01637 4.31389 8.15564 5.34073 9.33616 6.07301C9.70896 5.88994 10.5167 5.15766 9.50402 3.96095ZM11.4561 4.86228C10.8558 4.9422 9.89536 5.21881 10.206 6.62236C10.7136 6.68385 11.8836 6.19518 11.4561 4.86228ZM13.0306 6.41416C12.5049 6.07287 11.2001 5.82879 11.061 7.12985C11.5729 7.41538 12.3698 7.79024 13.0306 6.41416ZM8.77696 8.45314C8.77696 8.20906 9.00064 8.01376 9.14976 8.45313C9.17047 9.18541 9.21189 10.6622 9.21189 10.711C9.21189 10.772 9.46042 10.833 9.64682 10.833C9.76499 10.833 10.7322 10.6123 11.4403 10.4507C11.8491 10.3574 12.1715 10.2838 12.1943 10.2838C12.2564 10.2838 12.3185 10.2838 12.3807 10.3449C12.4428 10.4059 12.5049 10.5279 12.3185 10.65C12.1321 10.772 9.27402 11.5653 9.21189 11.5653C9.16235 11.5653 9.31032 13.8156 9.37233 14.7585C9.38809 14.9981 9.39829 15.1533 9.39829 15.1657C9.39829 15.2145 9.48113 15.3081 9.52256 15.3488H8.34203C8.38345 15.2267 8.4663 14.9704 8.4663 14.9216C8.4663 14.8728 8.59056 12.7451 8.6527 11.6874C8.6527 11.6467 8.62784 11.5653 8.52843 11.5653C8.40417 11.5653 6.04312 11.1992 5.85672 10.8941C5.66391 10.5784 5.83711 10.6201 6.22617 10.7135C6.30225 10.7318 6.38658 10.7521 6.47805 10.772C7.21593 10.933 8.36487 10.9713 8.40417 10.8941C8.4142 10.8744 8.4307 10.869 8.45133 10.8623C8.5585 10.8273 8.77696 10.7559 8.77696 8.45314Z" fill="#969696"/>
</svg>
