<svg width="20" height="19" viewBox="0 0 20 19" fill="none" xmlns="http://www.w3.org/2000/svg">
<path d="M5.5 0.518799C2.4624 0.518799 0 2.98066 0 6.01849C0 9.20232 1.8135 12.2061 4.8125 14.956C5.8361 15.8939 6.9382 16.7169 8.0312 17.4558C8.4143 17.7138 8.7726 17.9478 9.0938 18.1428C9.2896 18.2618 9.4187 18.3478 9.5 18.3928C9.802 18.5608 10.198 18.5608 10.5 18.3928C10.5813 18.3478 10.7104 18.2618 10.9062 18.1428C11.2274 17.9478 11.5857 17.7138 11.9688 17.4558C13.0618 16.7169 14.1639 15.8939 15.1875 14.956C18.1865 12.2061 20 9.20232 20 6.01849C20 2.98066 17.5376 0.518799 14.5 0.518799C12.7748 0.518799 11.0904 1.45876 10.0312 2.83068C8.9984 1.43476 7.3199 0.518799 5.5 0.518799ZM5.5 2.51869C6.7139 2.51869 7.8475 3.13467 8.5 4.08061C8.5634 4.17261 9.0633 4.90756 9.1562 5.04955C9.5431 5.64252 10.4063 5.66052 10.8125 5.08056C10.9113 4.93956 11.4316 4.20759 11.5 4.11259C12.1811 3.16065 13.3732 2.51869 14.5 2.51869C16.433 2.51869 18 4.0856 18 6.01849C18 8.52135 16.4385 11.0482 13.8125 13.4561C12.8673 14.322 11.8601 15.112 10.8438 15.799C10.5365 16.0069 10.2624 16.1689 10 16.3299C9.7376 16.1689 9.4635 16.0069 9.1562 15.799C8.1399 15.112 7.1327 14.322 6.1875 13.4561C3.5615 11.0482 2 8.52135 2 6.01849C2 4.0856 3.567 2.51869 5.5 2.51869Z" fill="#A3A3A3"/>
</svg>
