<svg width="78" height="86" viewBox="0 0 78 86" fill="none" xmlns="http://www.w3.org/2000/svg">
<g filter="url(#filter0_d_2042_2657)">
<path fill-rule="evenodd" clip-rule="evenodd" d="M43.0741 63.4586C57.1614 61.4868 68 49.4388 68 34.8706C68 18.9258 55.0163 6 39 6C22.9837 6 10 18.9258 10 34.8706C10 48.9654 20.1456 60.7011 33.563 63.2347L37.2213 71.2633C37.6689 72.2456 39.0702 72.2456 39.5178 71.2633L43.0741 63.4586Z" fill="#0A45CA"/>
<path fill-rule="evenodd" clip-rule="evenodd" d="M42.2122 62.3117L42.8986 62.2156C56.3722 60.3297 66.7391 48.8044 66.7391 34.8706C66.7391 19.6191 54.3199 7.25525 39 7.25525C23.6801 7.25525 11.2609 19.6191 11.2609 34.8706C11.2609 48.3512 20.9646 59.5781 33.7979 62.0015L34.4409 62.1229L38.3696 70.7448L42.2122 62.3117ZM43.0741 63.4586L39.5178 71.2633C39.0702 72.2456 37.6689 72.2456 37.2213 71.2633L33.563 63.2347C20.1456 60.7011 10 48.9654 10 34.8706C10 18.9258 22.9837 6 39 6C55.0163 6 68 18.9258 68 34.8706C68 49.4388 57.1614 61.4868 43.0741 63.4586Z" fill="#0A45CA"/>
<path d="M60 36C60 47.598 50.598 57 39 57C27.402 57 18 47.598 18 36C18 24.402 27.402 15 39 15C50.598 15 60 24.402 60 36Z" fill="white"/>
</g>
<defs>
<filter id="filter0_d_2042_2657" x="0" y="0" width="78" height="86" filterUnits="userSpaceOnUse" color-interpolation-filters="sRGB">
<feFlood flood-opacity="0" result="BackgroundImageFix"/>
<feColorMatrix in="SourceAlpha" type="matrix" values="0 0 0 0 0 0 0 0 0 0 0 0 0 0 0 0 0 0 127 0" result="hardAlpha"/>
<feOffset dy="4"/>
<feGaussianBlur stdDeviation="5"/>
<feComposite in2="hardAlpha" operator="out"/>
<feColorMatrix type="matrix" values="0 0 0 0 0 0 0 0 0 0 0 0 0 0 0 0 0 0 0.25 0"/>
<feBlend mode="normal" in2="BackgroundImageFix" result="effect1_dropShadow_2042_2657"/>
<feBlend mode="normal" in="SourceGraphic" in2="effect1_dropShadow_2042_2657" result="shape"/>
</filter>
</defs>
</svg>
