<svg width="12" height="22" viewBox="0 0 12 22" fill="none" xmlns="http://www.w3.org/2000/svg">
<path d="M9.98241 0.257982L0.266158 10.2255C0.0955073 10.4006 0 10.6354 0 10.8799C0 11.1243 0.0955073 11.3592 0.266158 11.5342L9.98241 21.5055C10.0619 21.5871 10.1569 21.652 10.2619 21.6963C10.3669 21.7406 10.4797 21.7635 10.5937 21.7635C10.7076 21.7635 10.8204 21.7406 10.9254 21.6963C11.0304 21.652 11.1254 21.5871 11.2049 21.5055C11.3685 21.338 11.46 21.1133 11.46 20.8792C11.46 20.6452 11.3685 20.4204 11.2049 20.253L2.06803 10.8799L11.2049 1.50861C11.3679 1.34126 11.4591 1.11689 11.4591 0.883294C11.4591 0.649696 11.3679 0.425329 11.2049 0.257982C11.1254 0.176338 11.0304 0.111446 10.9254 0.067137C10.8204 0.0228281 10.7076 0 10.5937 0C10.4797 0 10.3669 0.0228281 10.2619 0.067137C10.1569 0.111446 10.0619 0.176338 9.98241 0.257982Z" fill="#797979"/>
</svg>
