<svg width="30" height="25" viewBox="0 0 30 25" fill="none" xmlns="http://www.w3.org/2000/svg">
<path d="M7.225 21.25C7.225 21.7471 7.62794 22.15 8.125 22.15C8.62206 22.15 9.025 21.7471 9.025 21.25H7.225ZM9.025 2.5C9.025 2.00294 8.62206 1.6 8.125 1.6C7.62794 1.6 7.225 2.00294 7.225 2.5H9.025ZM12.15 2.5C12.15 2.00294 11.7471 1.6 11.25 1.6C10.7529 1.6 10.35 2.00294 10.35 2.5H12.15ZM5.9 2.5C5.9 2.00294 5.49706 1.6 5 1.6C4.50294 1.6 4.1 2.00294 4.1 2.5H5.9ZM16.8375 2.5C16.8375 2.00294 16.4346 1.6 15.9375 1.6C15.4404 1.6 15.0375 2.00294 15.0375 2.5H16.8375ZM9.025 21.25V2.5H7.225V21.25H9.025ZM10.35 2.5V7.70833H12.15V2.5H10.35ZM5.9 7.70833V2.5H4.1V7.70833H5.9ZM8.125 9.93333C6.89617 9.93333 5.9 8.93717 5.9 7.70833H4.1C4.1 9.93128 5.90205 11.7333 8.125 11.7333V9.93333ZM10.35 7.70833C10.35 8.93717 9.35383 9.93333 8.125 9.93333V11.7333C10.3479 11.7333 12.15 9.93128 12.15 7.70833H10.35ZM16.8375 12.9167V2.5H15.0375V12.9167H16.8375ZM18.6833 17.0833C18.6833 19.0041 17.3449 20.35 15.9375 20.35V22.15C18.5572 22.15 20.4833 19.7649 20.4833 17.0833H18.6833ZM15.9375 20.35C14.5301 20.35 13.1917 19.0041 13.1917 17.0833H11.3917C11.3917 19.7649 13.3178 22.15 15.9375 22.15V20.35ZM13.1917 17.0833C13.1917 15.1626 14.5301 13.8167 15.9375 13.8167V12.0167C13.3178 12.0167 11.3917 14.4017 11.3917 17.0833H13.1917ZM15.9375 13.8167C17.3449 13.8167 18.6833 15.1626 18.6833 17.0833H20.4833C20.4833 14.4017 18.5572 12.0167 15.9375 12.0167V13.8167Z" fill="#A3A3A3"/>
<path d="M28.4934 7.9348C27.0934 10.4291 23.1751 14.4165 18.7019 10.4119C19.1186 8.28003 21.6603 4.80001 28.4934 7.9348Z" fill="#A3A3A3"/>
<path fill-rule="evenodd" clip-rule="evenodd" d="M18 8.68589C22.0768 6.95118 20.7623 2.87362 19.5524 1C18.9356 1.46482 18.4227 1.92111 18 2.36572V8.68589Z" fill="#E4E4E4"/>
</svg>
