<svg width="270" height="207" viewBox="0 0 270 207" fill="none" xmlns="http://www.w3.org/2000/svg">
<path d="M59.0859 118.31H51.1059C49.5459 118.31 49.0359 118.79 49.0359 120.32V128.54C49.0359 130.07 49.5459 130.55 51.1059 130.55H59.0859C60.6459 130.55 61.1559 130.07 61.1559 128.54V120.32C61.1559 118.79 60.6459 118.31 59.0859 118.31ZM51.7659 120.2H58.4559C58.8459 120.2 59.0259 120.32 59.0259 120.74V128.09C59.0259 128.51 58.8459 128.66 58.4559 128.66H51.7659C51.3459 128.66 51.1959 128.51 51.1959 128.09V120.74C51.1959 120.32 51.3459 120.2 51.7659 120.2ZM68.8359 116.78C68.2959 116.78 67.7559 117.05 67.7559 117.68V120.89H63.4659C62.9559 120.89 62.7159 121.31 62.7159 121.82C62.7159 122.33 62.9559 122.78 63.4659 122.78H67.7559V126.2H63.4659C62.9559 126.2 62.7159 126.62 62.7159 127.13C62.7159 127.67 62.9559 128.09 63.4659 128.09H67.7559V132.29C67.7559 132.92 68.2959 133.19 68.8359 133.19C69.3759 133.19 69.9159 132.92 69.9159 132.29V117.68C69.9159 117.05 69.3759 116.78 68.8359 116.78ZM61.5759 133.55C56.1159 133.55 53.0559 135.47 53.0559 139.04C53.0559 142.61 56.1159 144.53 61.5759 144.53C67.0359 144.53 70.1259 142.61 70.1259 139.04C70.1259 135.47 67.0359 133.55 61.5759 133.55ZM61.5759 135.35C65.9259 135.35 67.9659 136.76 67.9659 139.04C67.9659 141.32 65.9259 142.73 61.5759 142.73C57.2559 142.73 55.2159 141.32 55.2159 139.04C55.2159 136.76 57.2559 135.35 61.5759 135.35ZM90.3206 118.91H76.8206C76.3106 118.91 76.0706 119.33 76.0706 119.87C76.0706 120.38 76.3106 120.83 76.8206 120.83H82.5206V124.28C82.5206 126.95 81.9806 128.3 80.0906 130.25C78.7406 131.6 77.3906 132.89 75.8906 134.21C75.4406 134.57 75.5306 135.17 75.8906 135.59C76.2206 135.95 76.7906 136.13 77.2706 135.71C78.6506 134.51 79.8506 133.37 81.2006 132.02C83.0606 130.13 83.4806 129.35 83.6306 128.66H83.6606C83.8106 129.32 84.2006 130.1 86.0906 131.99C87.4406 133.34 88.6106 134.48 89.6006 135.32C90.0506 135.74 90.5906 135.59 90.9806 135.23C91.3106 134.87 91.4306 134.24 90.9806 133.85C89.9006 132.92 88.5206 131.6 87.1706 130.25C85.2806 128.3 84.7406 126.95 84.7406 124.28V120.83H90.3206C90.8306 120.83 91.0706 120.38 91.0706 119.87C91.0706 119.33 90.8306 118.91 90.3206 118.91ZM95.9306 116.78C95.3906 116.78 94.8506 117.05 94.8506 117.68V141.56C94.8506 142.19 95.3906 142.46 95.9306 142.46C96.5006 142.46 97.0406 142.19 97.0406 141.56V117.68C97.0406 117.05 96.5006 116.78 95.9306 116.78ZM113.155 119.03H105.115C103.555 119.03 103.045 119.51 103.045 121.04V133.34C103.045 134.87 103.555 135.35 105.115 135.35C109.255 135.35 112.825 135.11 114.625 134.81C115.105 134.75 115.315 134.24 115.255 133.7C115.165 133.16 114.835 132.83 114.385 132.89C112.105 133.25 108.655 133.46 105.805 133.46C105.385 133.46 105.235 133.31 105.235 132.89V121.49C105.235 121.07 105.385 120.92 105.805 120.92H113.155C113.665 120.92 113.905 120.5 113.905 119.96C113.905 119.45 113.665 119.03 113.155 119.03ZM124.165 116.78C123.655 116.78 123.145 117.05 123.145 117.65V126.2H119.155V117.95C119.155 117.35 118.645 117.08 118.105 117.08C117.595 117.08 117.085 117.35 117.085 117.95V140.33C117.085 140.93 117.595 141.2 118.105 141.2C118.645 141.2 119.155 140.93 119.155 140.33V128.09H123.145V141.59C123.145 142.19 123.655 142.46 124.165 142.46C124.705 142.46 125.215 142.19 125.215 141.59V117.65C125.215 117.05 124.705 116.78 124.165 116.78ZM144.57 118.4C140.19 118.4 137.91 121.46 137.91 127.16C137.91 132.86 140.19 135.92 144.57 135.92C148.95 135.92 151.2 132.86 151.2 127.16C151.2 121.46 148.95 118.4 144.57 118.4ZM144.57 120.35C147.72 120.35 149.07 122.81 149.07 127.16C149.07 131.51 147.72 133.97 144.57 133.97C141.42 133.97 140.07 131.51 140.07 127.16C140.07 122.81 141.42 120.35 144.57 120.35ZM158.25 116.78C157.71 116.78 157.17 117.05 157.17 117.68V122.93H152.97C152.43 122.93 152.22 123.35 152.22 123.86C152.22 124.37 152.43 124.82 152.97 124.82H157.17V129.5H152.97C152.43 129.5 152.22 129.95 152.22 130.46C152.22 130.97 152.43 131.39 152.97 131.39H157.17V141.56C157.17 142.19 157.71 142.46 158.25 142.46C158.79 142.46 159.33 142.19 159.33 141.56V117.68C159.33 117.05 158.79 116.78 158.25 116.78ZM175.325 118.7H166.625C166.115 118.7 165.875 119.12 165.875 119.63C165.875 120.17 166.115 120.59 166.625 120.59H174.665C175.055 120.59 175.235 120.74 175.235 121.13V125.84C175.235 126.26 175.055 126.41 174.665 126.41H167.945C166.385 126.41 165.875 126.89 165.875 128.42V134.12C165.875 135.65 166.385 136.13 167.945 136.13C173.375 136.13 177.125 135.89 180.215 135.47C180.695 135.41 180.905 134.9 180.845 134.36C180.755 133.85 180.425 133.49 179.945 133.55C176.435 134.06 172.805 134.24 168.605 134.24C168.185 134.24 168.035 134.09 168.035 133.7V128.78C168.035 128.39 168.185 128.24 168.605 128.24H175.325C176.885 128.24 177.395 127.76 177.395 126.23V120.71C177.395 119.18 176.885 118.7 175.325 118.7ZM185.555 116.78C184.985 116.78 184.475 117.05 184.475 117.68V125.93H180.155C179.615 125.93 179.375 126.35 179.375 126.86C179.375 127.4 179.615 127.85 180.155 127.85H184.475V141.56C184.475 142.19 184.985 142.46 185.555 142.46C186.095 142.46 186.635 142.19 186.635 141.56V117.68C186.635 117.05 186.095 116.78 185.555 116.78ZM196.179 117.47C195.639 117.47 195.129 117.74 195.129 118.34V126.05C195.129 127.58 195.639 128.06 197.199 128.06H210.819C212.379 128.06 212.889 127.58 212.889 126.05V118.34C212.889 117.74 212.379 117.47 211.809 117.47C211.269 117.47 210.759 117.74 210.759 118.34V121.1H197.259V118.34C197.259 117.74 196.749 117.47 196.179 117.47ZM197.259 125.75V122.96H210.759V125.75C210.759 126.11 210.609 126.23 210.249 126.23H197.769C197.409 126.23 197.259 126.11 197.259 125.75ZM215.769 131.18H192.249C191.739 131.18 191.499 131.6 191.499 132.11C191.499 132.62 191.739 133.04 192.249 133.04H203.229V137.6C203.229 138.2 203.739 138.47 204.309 138.47C204.909 138.47 205.389 138.2 205.389 137.6V133.04H215.769C216.279 133.04 216.519 132.62 216.519 132.11C216.519 131.6 216.279 131.18 215.769 131.18ZM196.179 135.86C195.579 135.86 195.069 136.13 195.069 136.79V141.89C195.069 143.42 195.579 143.9 197.139 143.9H212.709C213.219 143.9 213.459 143.48 213.459 142.97C213.459 142.46 213.219 142.04 212.709 142.04H197.829C197.439 142.04 197.259 141.89 197.259 141.47V136.79C197.259 136.13 196.749 135.86 196.179 135.86Z" fill="#274984"/>
<path d="M81.7206 161C77.7906 161 75.4506 163.43 75.4506 166.79C75.4506 170.15 77.7906 172.58 81.7206 172.58C85.6506 172.58 87.9906 170.15 87.9906 166.79C87.9906 163.43 85.6506 161 81.7206 161ZM81.7206 152.78C81.1806 152.78 80.6106 153.05 80.6106 153.68V156.71H74.2806C73.7406 156.71 73.5006 157.13 73.5006 157.64C73.5006 158.18 73.7406 158.6 74.2806 158.6H88.8606C89.3706 158.6 89.6106 158.18 89.6106 157.64C89.6106 157.13 89.3706 156.71 88.8606 156.71H82.8306V153.68C82.8306 153.05 82.2906 152.78 81.7206 152.78ZM81.7206 162.83C84.3606 162.83 85.9506 164.45 85.9506 166.79C85.9506 169.13 84.3606 170.75 81.7206 170.75C79.0806 170.75 77.4906 169.13 77.4906 166.79C77.4906 164.45 79.0806 162.83 81.7206 162.83ZM93.4206 152.78C92.8506 152.78 92.3406 153.05 92.3406 153.68V177.56C92.3406 178.19 92.8506 178.46 93.4206 178.46C93.9606 178.46 94.5006 178.19 94.5006 177.56V164.3H98.3106C98.8506 164.3 99.0906 163.85 99.0906 163.31C99.0906 162.8 98.8506 162.35 98.3106 162.35H94.5006V153.68C94.5006 153.05 93.9606 152.78 93.4206 152.78ZM109.265 153.74C108.665 153.74 108.155 154.01 108.155 154.64V158.33C108.155 160.31 107.645 161.63 106.085 162.86C104.615 164.03 103.265 165.02 101.765 166.07C101.255 166.43 101.255 167.03 101.555 167.48C101.855 167.87 102.395 168.08 102.905 167.72C104.165 166.88 105.485 165.89 106.925 164.78C108.515 163.52 109.115 162.65 109.265 161.99H109.295C109.445 162.62 110.015 163.43 111.605 164.72C113.045 165.83 114.335 166.79 115.145 167.33C115.685 167.69 116.195 167.48 116.495 167.09C116.825 166.64 116.795 166.04 116.285 165.71C115.265 164.99 113.915 164 112.415 162.83C110.885 161.57 110.375 160.25 110.375 158.3V154.64C110.375 154.01 109.835 153.74 109.265 153.74ZM122.195 152.78C121.655 152.78 121.115 153.05 121.115 153.68V156.11H116.015C115.505 156.11 115.295 156.53 115.295 157.04C115.295 157.55 115.505 157.97 116.015 157.97H121.115V160.79H116.015C115.505 160.79 115.295 161.21 115.295 161.72C115.295 162.23 115.505 162.65 116.015 162.65H121.115V167.51C121.115 168.14 121.655 168.41 122.195 168.41C122.735 168.41 123.275 168.14 123.275 167.51V153.68C123.275 153.05 122.735 152.78 122.195 152.78ZM109.835 169.31C109.295 169.31 108.755 169.58 108.755 170.21V171.65C108.755 173.66 108.395 174.44 106.775 175.91C105.995 176.63 104.915 177.5 103.805 178.31C103.445 178.61 103.415 179.18 103.775 179.6C104.105 180.05 104.645 180.14 105.095 179.81C106.115 179.03 107.045 178.25 107.705 177.68C109.115 176.48 109.655 175.82 109.835 175.19H109.865C110.045 175.82 110.465 176.36 111.815 177.8C112.355 178.34 112.835 178.85 113.345 179.33C114.395 180.26 115.025 180.26 116.045 179.33C116.555 178.85 117.065 178.34 117.575 177.8C118.925 176.36 119.375 175.82 119.555 175.19H119.585C119.765 175.79 120.305 176.45 121.685 177.65C122.375 178.25 123.275 179 124.295 179.78C124.775 180.14 125.285 180.02 125.645 179.6C125.975 179.15 125.975 178.61 125.585 178.31C124.505 177.5 123.395 176.63 122.645 175.91C121.025 174.44 120.665 173.66 120.665 171.65V170.21C120.665 169.58 120.125 169.31 119.585 169.31C119.045 169.31 118.505 169.58 118.505 170.21V171.65C118.505 173.63 118.175 174.35 116.825 175.91C116.315 176.48 115.685 177.14 115.175 177.62C114.815 177.95 114.575 177.95 114.245 177.62C113.705 177.14 113.105 176.48 112.595 175.91C111.215 174.35 110.885 173.63 110.885 171.65V170.21C110.885 169.58 110.375 169.31 109.835 169.31ZM149.5 152.78C148.93 152.78 148.42 153.05 148.42 153.68V162.2H142.6C142.36 157.13 140.08 154.4 135.91 154.4C131.47 154.4 129.16 157.46 129.16 163.16C129.16 168.86 131.47 171.92 135.91 171.92C140.11 171.92 142.36 169.19 142.6 164.09H148.42V177.56C148.42 178.19 148.93 178.46 149.5 178.46C150.04 178.46 150.58 178.19 150.58 177.56V153.68C150.58 153.05 150.04 152.78 149.5 152.78ZM135.91 156.35C139.12 156.35 140.5 158.81 140.5 163.16C140.5 167.51 139.12 169.97 135.91 169.97C132.7 169.97 131.32 167.51 131.32 163.16C131.32 158.81 132.7 156.35 135.91 156.35ZM167.955 153.89C162.225 153.89 158.985 156.53 158.985 160.85C158.985 165.17 162.225 167.81 167.955 167.81C173.685 167.81 176.925 165.17 176.925 160.85C176.925 156.53 173.685 153.89 167.955 153.89ZM167.955 155.75C172.545 155.75 174.735 157.91 174.735 160.85C174.735 163.76 172.545 165.92 167.955 165.92C163.365 165.92 161.175 163.76 161.175 160.85C161.175 157.91 163.365 155.75 167.955 155.75ZM163.185 168.5C162.645 168.5 162.105 168.77 162.105 169.4V173.81H156.195C155.685 173.81 155.445 174.23 155.445 174.74C155.445 175.25 155.685 175.67 156.195 175.67H179.715C180.225 175.67 180.465 175.25 180.465 174.74C180.465 174.23 180.225 173.81 179.715 173.81H173.805V169.4C173.805 168.77 173.265 168.5 172.695 168.5C172.125 168.5 171.615 168.77 171.615 169.4V173.81H164.295V169.4C164.295 168.77 163.785 168.5 163.185 168.5Z" fill="#274984"/>
<path d="M26.0271 135.402C25.3082 135.155 24.5104 135.262 24.2379 136.057L22.9014 139.954C22.019 142.527 20.5898 143.982 18.1151 144.909C15.7291 145.825 13.5853 146.528 11.1376 147.253C10.3387 147.486 10.0911 148.332 10.3008 148.953C10.4975 149.613 11.1385 150.086 11.9375 149.853C14.0554 149.226 16.1992 148.523 18.3819 147.707C20.7928 146.843 22.2177 145.894 22.6924 145.126L22.7302 145.139C22.6469 145.998 23.1647 147.571 24.5753 149.747C25.8109 151.693 27.0594 153.601 27.922 154.785C28.4095 155.459 29.1814 155.428 29.7285 155.066C30.2885 154.666 30.561 153.871 30.0983 153.248C29.0357 151.784 27.7872 149.876 26.4522 147.726C25.0675 145.475 24.832 143.449 25.7143 140.876L27.0378 137.017C27.3103 136.223 26.746 135.648 26.0271 135.402ZM42.043 139.626C41.3241 139.379 40.5263 139.486 40.2538 140.281L34.0904 158.253C33.8179 159.048 34.3822 159.622 35.1011 159.868C35.7822 160.102 36.58 159.995 36.8525 159.2L43.0159 141.228C43.2884 140.433 42.7241 139.859 42.043 139.626ZM33.1907 161.37L14.6128 154.999C13.9696 154.778 13.4852 155.204 13.2517 155.885C13.0311 156.529 13.1521 157.162 13.7953 157.383L31.503 163.455C32.0327 163.637 32.1571 163.891 31.9884 164.383L29.0689 172.896C28.7964 173.691 29.3607 174.265 30.0417 174.498C30.7606 174.745 31.5585 174.638 31.831 173.843L34.9321 164.8C35.5939 162.871 35.1583 162.045 33.1907 161.37Z" fill="#274984"/>
<path d="M47.6969 152.92C46.9369 152.92 46.2169 153.28 46.2169 154.16V160.56C46.2169 164.08 45.4169 165.92 42.8969 168.6C41.1369 170.44 39.3369 172.2 37.3769 174C36.8169 174.52 36.8569 175.28 37.3369 175.84C37.8169 176.32 38.5769 176.56 39.2169 176C41.0969 174.32 42.6169 172.8 44.3369 171C46.8569 168.4 47.4969 167.32 47.6969 166.36H47.7369C47.9369 167.24 48.5369 168.36 51.0569 170.96C52.8169 172.76 54.2569 174.2 55.6969 175.48C56.2569 176.04 57.0569 175.84 57.4969 175.4C57.9769 174.88 58.1369 174.04 57.5769 173.56C55.9769 172.12 54.2569 170.44 52.4969 168.6C49.9769 165.92 49.1769 164.08 49.1769 160.56V154.16C49.1769 153.28 48.4569 152.92 47.6969 152.92ZM63.2969 151.04C62.5769 151.04 61.8569 151.4 61.8569 152.24V184.08C61.8569 184.92 62.5769 185.28 63.2969 185.28C64.0569 185.28 64.7769 184.92 64.7769 184.08V166H69.8569C70.5769 166 70.8969 165.4 70.8969 164.68C70.8969 164 70.5769 163.4 69.8569 163.4H64.7769V152.24C64.7769 151.4 64.0569 151.04 63.2969 151.04Z" fill="#274984"/>
<path d="M245.778 129.805C240.961 125.47 234.985 123.859 230.347 123.99C228.759 123.961 227.743 125.09 227.767 126.619C227.677 128.153 228.641 129.235 230.175 129.324C234.308 129.276 238.321 130.198 242.306 133.783C247.539 138.493 248.056 144.017 244.31 148.179L243.882 148.655C241.314 151.509 238.18 152.241 230.36 152.2C221.352 152.165 218.712 153.663 215.073 157.707C214.002 158.896 214.532 160.341 215.661 161.358C216.672 162.268 218.218 162.583 219.182 161.512C221.857 158.539 223.837 157.415 232.674 157.403C240.095 157.408 244.638 156.546 248.223 152.562L248.812 151.908C254.645 145.426 253.628 136.869 245.778 129.805ZM210.465 167.013C208.621 165.354 205.797 165.503 204.138 167.346C202.479 169.19 202.681 171.955 204.525 173.614C206.427 175.326 209.139 175.183 210.798 173.34C212.457 171.497 212.368 168.726 210.465 167.013Z" fill="#274984"/>
<path d="M84.6616 199.78H82.1816V197.11H84.6616V199.78ZM87.5216 197.89V199H85.4616V197.89H87.5216ZM85.4616 199.66H87.5216V201.08H88.3516V195.78H87.5216V197.23H85.4616V196.45H81.3716V200.43H85.4616V199.66ZM85.3816 204.09C84.0416 204.09 83.2216 203.7 83.2216 203.04C83.2216 202.38 84.0416 201.99 85.3816 201.99C86.7416 201.99 87.5616 202.38 87.5616 203.04C87.5616 203.7 86.7416 204.09 85.3816 204.09ZM85.3816 201.35C83.5416 201.35 82.4016 201.96 82.4016 203.04C82.4016 204.11 83.5416 204.73 85.3816 204.73C87.2316 204.73 88.3816 204.11 88.3816 203.04C88.3816 201.96 87.2316 201.35 85.3816 201.35ZM93.3609 197.37H95.4709V196.69H90.4609V197.37H92.5409V198.51C92.5409 200.06 91.4509 201.75 90.1609 202.36L90.6409 203.02C91.6609 202.5 92.5409 201.37 92.9509 200.06C93.3809 201.29 94.2609 202.32 95.3009 202.8L95.7609 202.14C94.4409 201.58 93.3609 200.03 93.3609 198.51V197.37ZM96.6809 195.78V204.74H97.5009V195.78H96.6809ZM100.49 197.53H103.02V196.86H99.6801V202.53H100.27C101.61 202.53 102.52 202.49 103.59 202.26L103.52 201.58C102.54 201.79 101.69 201.84 100.49 201.85V197.53ZM106.19 195.77V199.37H104.92V195.97H104.15V204.29H104.92V200.04H106.19V204.74H106.98V195.77H106.19ZM116.116 196.72H113.876V195.72H113.056V196.72H110.826V197.38H116.116V196.72ZM112.106 199.46C112.106 198.87 112.646 198.48 113.466 198.48C114.286 198.48 114.836 198.87 114.836 199.46C114.836 200.06 114.286 200.45 113.466 200.45C112.646 200.45 112.106 200.06 112.106 199.46ZM115.616 199.46C115.616 198.48 114.746 197.84 113.466 197.84C112.196 197.84 111.326 198.48 111.326 199.46C111.326 200.45 112.196 201.08 113.466 201.08C114.746 201.08 115.616 200.45 115.616 199.46ZM111.936 202.54H116.936V204.75H117.756V201.87H111.936V202.54ZM119.086 198.25H117.756V195.78H116.936V201.38H117.756V198.93H119.086V198.25ZM125.405 199.99C124.075 199.53 123.155 198.36 123.155 197.07V196.19H122.335V197.07C122.335 198.41 121.425 199.66 120.075 200.15L120.495 200.8C121.545 200.4 122.365 199.57 122.755 198.51C123.155 199.5 123.965 200.27 124.995 200.64L125.405 199.99ZM121.355 202.29H126.535V204.75H127.355V201.63H121.355V202.29ZM126.535 195.78V201.17H127.355V195.78H126.535ZM136.84 199.99C135.51 199.53 134.59 198.36 134.59 197.07V196.19H133.77V197.07C133.77 198.41 132.86 199.66 131.51 200.15L131.93 200.8C132.98 200.4 133.8 199.57 134.19 198.51C134.59 199.5 135.4 200.27 136.43 200.64L136.84 199.99ZM132.79 202.29H137.97V204.75H138.79V201.63H132.79V202.29ZM137.97 195.78V201.17H138.79V195.78H137.97ZM145.82 199.7C144.65 199.93 143.63 200 141.86 200V197.21H145.01V196.55H141.04V200.67H141.74C143.62 200.67 144.68 200.61 145.91 200.36L145.82 199.7ZM142.83 201.61H142.01V204.54H147.99V203.87H142.83V201.61ZM147.59 198.43V195.77H146.77V202.26H147.59V199.11H148.92V198.43H147.59ZM152.899 200.85H154.849V202.98H152.899V200.85ZM152.759 197.26H154.989V200.19H152.759V197.26ZM155.669 202.98V200.85H157.189V200.19H155.809V197.26H157.199V196.6H150.549V197.26H151.939V200.19H150.569V200.85H152.079V202.98H149.819V203.65H157.959V202.98H155.669ZM163.894 197.49H165.494V196.82H161.404V197.49H163.104V198.3C163.104 199.95 162.404 201.58 161.154 202.33L161.654 202.94C162.544 202.38 163.194 201.33 163.504 200.1C163.814 201.24 164.434 202.2 165.304 202.72L165.804 202.12C164.564 201.42 163.894 199.86 163.894 198.3V197.49ZM166.294 198.99H164.814V199.66H166.294V204.27H167.074V195.97H166.294V198.99ZM168.094 195.76V204.73H168.884V195.76H168.094ZM176.734 196.99C176.734 197.69 176.734 198.35 176.494 199.27L177.294 199.36C177.544 198.44 177.544 197.71 177.544 196.99V196.23H171.434V196.89H176.734V196.99ZM174.484 204.09C173.084 204.09 172.184 203.71 172.184 203.09C172.184 202.45 173.084 202.07 174.484 202.07C175.894 202.07 176.794 202.45 176.794 203.09C176.794 203.71 175.894 204.09 174.484 204.09ZM174.484 201.44C172.574 201.44 171.364 202.05 171.364 203.09C171.364 204.11 172.574 204.73 174.484 204.73C176.394 204.73 177.614 204.11 177.614 203.09C177.614 202.05 176.394 201.44 174.484 201.44ZM174.614 199.95V198.23H173.794V199.95H170.484V200.61H178.554V199.95H174.614ZM182.729 198.29C182.729 197.49 183.279 196.93 184.029 196.93C184.769 196.93 185.319 197.49 185.319 198.29C185.319 199.09 184.769 199.66 184.029 199.66C183.279 199.66 182.729 199.09 182.729 198.29ZM186.069 198.29C186.069 197.09 185.209 196.27 184.029 196.27C182.839 196.27 181.989 197.09 181.989 198.29C181.989 199.5 182.839 200.33 184.029 200.33C185.209 200.33 186.069 199.5 186.069 198.29ZM188.659 203.95H184.399V202.79H188.659V203.95ZM188.659 202.14H184.399V201.06H183.579V204.62H189.469V201.06H188.659V202.14ZM188.679 195.78V197.83H187.539V195.95H186.759V200.6H187.539V198.51H188.679V200.67H189.469V195.78H188.679Z" fill="#274984"/>
<path d="M155.5 38V61M151 38.575V44.325C151 47.2 155.5 47.2 155.5 47.2C155.5 47.2 160 47.2 160 44.325V38.575" stroke="#274984" stroke-width="3" stroke-linecap="round" stroke-linejoin="round"/>
<path d="M130.935 50.12C129.375 50.12 127.875 50.9 127.875 52.64V58.28C127.875 62.12 126.675 64.76 123.855 67.16C121.035 69.5 118.515 71.42 115.695 73.46C114.255 74.48 114.435 76.16 115.215 77.3C115.995 78.32 117.555 78.98 118.935 78.02C121.455 76.22 123.915 74.3 126.435 72.2C129.375 69.86 130.695 68.18 130.995 66.8H131.055C131.355 68.06 132.555 69.56 135.495 71.96C138.015 74.06 140.475 75.92 142.095 77.06C143.475 78.08 144.975 77.42 145.755 76.34C146.595 75.2 146.655 73.64 145.335 72.68C143.355 71.24 140.835 69.32 138.015 66.98C135.195 64.58 133.995 61.94 133.995 58.1V52.64C133.995 50.9 132.555 50.12 130.935 50.12ZM155.535 48.32C153.975 48.32 152.535 49.1 152.535 50.84V78.26C152.535 80 153.975 80.78 155.535 80.78C157.095 80.78 158.535 80 158.535 78.26V50.84C158.535 49.1 157.095 48.32 155.535 48.32ZM124.575 83.36C123.075 83.36 122.415 84.56 122.415 85.94C122.415 87.32 123.075 88.52 124.575 88.52H151.275C152.175 88.52 152.535 88.82 152.535 89.72V101.6C152.535 103.34 153.975 104.12 155.535 104.12C157.095 104.12 158.535 103.34 158.535 101.6V87.86C158.535 84.44 157.395 83.36 153.915 83.36H124.575Z" fill="#274984"/>
<path d="M214.5 34.5C214.5 37.5061 212.484 39.5 210.5 39.5C208.516 39.5 206.5 37.5061 206.5 34.5C206.5 31.4939 208.516 29.5 210.5 29.5C212.484 29.5 214.5 31.4939 214.5 34.5Z" stroke="#274984" stroke-width="3"/>
<rect x="209.75" y="40.75" width="1.5" height="3.5" stroke="#274984" stroke-width="1.5"/>
<path d="M49 34C49 30.6863 51.6863 28 55 28H60.3965V41.2632H49V34Z" fill="#274984"/>
<path d="M87.4634 34C87.4634 30.6863 84.7771 28 81.4634 28H76.0669V41.2632H87.4634V34Z" fill="#274984"/>
<path d="M61.8208 28H74.6419V41.2632H61.8208V28Z" fill="#274984"/>
<path d="M68.9438 42.5895H87.4631V55.1579C87.4631 58.4716 84.7769 61.1579 81.4631 61.1579H68.9438V42.5895Z" fill="#274984"/>
<path d="M67.5195 42.5895H49.0002V55.1579C49.0002 58.4716 51.6865 61.1579 55.0002 61.1579H67.5195V42.5895Z" fill="#274984"/>
<path d="M106.535 16.32C105.035 16.32 103.595 17.1 103.595 18.84V27.6H95.4953C94.0553 27.6 93.4553 28.8 93.4553 30.18C93.4553 31.56 94.0553 32.76 95.4953 32.76H103.595V41.28H95.4953C94.0553 41.28 93.4553 42.42 93.4553 43.8C93.4553 45.24 94.0553 46.38 95.4953 46.38H103.595V65.64C103.595 67.38 105.035 68.16 106.535 68.16C108.035 68.16 109.475 67.38 109.475 65.64V18.84C109.475 17.1 108.035 16.32 106.535 16.32Z" fill="#274984"/>
<path d="M89.4953 69.08C78.2153 69.08 71.6753 74.84 71.6753 84.38C71.6753 93.92 78.2153 99.68 89.4953 99.68C100.775 99.68 107.375 93.92 107.375 84.38C107.375 74.84 100.775 69.08 89.4953 69.08ZM89.4953 74.18C97.7753 74.18 101.315 78.62 101.315 84.38C101.315 90.14 97.7753 94.58 89.4953 94.58C81.2153 94.58 77.6753 90.14 77.6753 84.38C77.6753 78.62 81.2153 74.18 89.4953 74.18Z" fill="#274984"/>
<path d="M184.435 43.38C175.135 43.38 170.395 49.68 170.395 61.32C170.395 72.96 175.135 79.26 184.435 79.26C193.735 79.26 198.535 72.96 198.535 61.32C198.535 49.68 193.735 43.38 184.435 43.38ZM184.435 48.66C190.375 48.66 192.715 53.16 192.715 61.32C192.715 69.48 190.375 73.98 184.435 73.98C178.555 73.98 176.215 69.48 176.215 61.32C176.215 53.16 178.555 48.66 184.435 48.66ZM210.475 40.32C208.975 40.32 207.475 41.1 207.475 42.84V89.64C207.475 91.38 208.975 92.16 210.475 92.16C212.095 92.16 213.535 91.38 213.535 89.64V42.84C213.535 41.1 212.095 40.32 210.475 40.32Z" fill="#274984"/>
</svg>
