<svg width="9" height="10" viewBox="0 0 9 10" fill="none" xmlns="http://www.w3.org/2000/svg">
<path d="M6.9219 8.70434L7.98507 4.70434C8.00172 4.64171 8.00449 4.57584 7.99316 4.51189C7.98183 4.44793 7.95672 4.38764 7.91979 4.33575C7.88286 4.28385 7.83512 4.24176 7.78032 4.21279C7.72552 4.18382 7.66515 4.16875 7.60395 4.16876H5.3309C5.29832 4.16876 5.26615 4.16094 5.2368 4.14589C5.20746 4.13084 5.18168 4.10894 5.16139 4.08183C5.14111 4.05471 5.12684 4.02308 5.11965 3.98929C5.11245 3.9555 5.11252 3.92041 5.11985 3.88665L5.21884 3.43107C5.30952 3.01318 5.33862 2.58265 5.30516 2.15529L5.28695 1.92307C5.26743 1.67396 5.16551 1.44026 4.99928 1.2635C4.84722 1.10177 4.64098 1.0109 4.42591 1.01086H4.3784C4.24832 1.01086 4.12854 1.08581 4.06558 1.20665L3.53914 2.21402C3.30314 2.66581 2.95134 3.03706 2.52467 3.28455L1.2063 4.04876C1.1438 4.08503 1.09164 4.13854 1.05534 4.20368C1.01903 4.26881 0.999916 4.34315 1 4.41886V8.58981C1 8.70148 1.04172 8.80858 1.11598 8.88754C1.19023 8.9665 1.29095 9.01086 1.39597 9.01086H6.54098C6.6272 9.01084 6.71105 8.98089 6.7798 8.92556C6.84855 8.87024 6.89845 8.79256 6.9219 8.70434Z" stroke="#274984" stroke-linecap="round" stroke-linejoin="round"/>
</svg>
