<svg width="120" height="82" viewBox="0 0 120 82" fill="none" xmlns="http://www.w3.org/2000/svg">
<mask id="mask0_2548_9400" style="mask-type:alpha" maskUnits="userSpaceOnUse" x="0" y="0" width="120" height="82">
<rect width="120" height="82" rx="6" fill="white"/>
</mask>
<g mask="url(#mask0_2548_9400)">
<path fill-rule="evenodd" clip-rule="evenodd" d="M16.051 60.076H98.8052C98.9925 60.076 99.1754 60.0953 99.3519 60.132C99.4136 59.7818 99.4458 59.4213 99.4458 59.0533C99.4458 56.3284 97.6797 54.0183 95.2357 53.2176C95.3289 52.7915 95.378 52.3487 95.378 51.8944C95.378 49.1995 93.6504 46.9103 91.2481 46.0857C91.2888 45.8119 91.3099 45.5317 91.3099 45.2465C91.3099 42.14 88.8056 39.6216 85.7164 39.6216C85.5364 39.6216 85.3584 39.6301 85.1827 39.6468C85.1994 39.4702 85.2079 39.2912 85.2079 39.1102C85.2079 36.0037 82.7036 33.4853 79.6143 33.4853C79.2492 33.4853 78.8922 33.5205 78.5466 33.5876C77.6401 31.7109 75.7264 30.4171 73.5123 30.4171C72.569 30.4171 71.6803 30.6519 70.9008 31.0665C70.4787 28.3804 68.1659 26.3264 65.376 26.3264C64.3435 26.3264 63.3763 26.6078 62.5461 27.0984C61.8041 24.8667 59.7089 23.2583 57.24 23.2583C54.7712 23.2583 52.6759 24.8668 51.9339 27.0985C51.1037 26.6078 50.1364 26.3264 49.1038 26.3264C47.2345 26.3264 45.5794 27.2486 44.5636 28.6651C43.5914 27.8437 42.337 27.349 40.9678 27.349C38.0447 27.349 35.6453 29.6038 35.3957 32.4781C31.5783 32.72 28.523 35.7857 28.2718 39.6216L28.2552 39.6216C25.4468 39.6216 23.1702 41.911 23.1702 44.7352C23.1702 45.5015 23.3378 46.2285 23.6382 46.881C21.0546 47.3781 19.1021 49.6626 19.1021 52.4056C19.1021 53.3978 19.3575 54.33 19.8059 55.1393C17.6427 55.7273 16.0511 57.7148 16.051 60.076Z" fill="white"/>
<path d="M16.051 60.076L15.551 60.076L15.551 60.576H16.051V60.076ZM99.3519 60.132L99.2502 60.6215L99.7548 60.7263L99.8443 60.2188L99.3519 60.132ZM95.2357 53.2176L94.7473 53.1109L94.6508 53.5521L95.0801 53.6928L95.2357 53.2176ZM91.2481 46.0857L90.7535 46.0121L90.6923 46.4236L91.0858 46.5586L91.2481 46.0857ZM85.1827 39.6468L84.6849 39.6L84.6283 40.2019L85.2301 40.1446L85.1827 39.6468ZM78.5466 33.5876L78.0964 33.8051L78.2639 34.1519L78.642 34.0785L78.5466 33.5876ZM70.9008 31.0665L70.4068 31.1442L70.5158 31.8376L71.1356 31.508L70.9008 31.0665ZM62.5461 27.0984L62.0717 27.2561L62.2671 27.844L62.8005 27.5288L62.5461 27.0984ZM51.9339 27.0985L51.6795 27.5289L52.2129 27.8442L52.4084 27.2562L51.9339 27.0985ZM44.5636 28.6651L44.241 29.0471L44.6545 29.3964L44.97 28.9565L44.5636 28.6651ZM35.3957 32.4781L35.4273 32.9771L35.8566 32.9499L35.8938 32.5214L35.3957 32.4781ZM28.2718 39.6216L28.271 40.1216L28.7401 40.1224L28.7708 39.6543L28.2718 39.6216ZM28.2552 39.6216L28.256 39.1216H28.2552V39.6216ZM23.6382 46.881L23.7327 47.372L24.3592 47.2515L24.0924 46.6719L23.6382 46.881ZM19.8059 55.1393L19.937 55.6218L20.5522 55.4546L20.2432 54.897L19.8059 55.1393ZM16.051 60.576H98.8052V59.576H16.051V60.576ZM98.8052 60.576C98.9582 60.576 99.1069 60.5918 99.2502 60.6215L99.4535 59.6424C99.2438 59.5989 99.0269 59.576 98.8052 59.576V60.576ZM99.8443 60.2188C99.911 59.84 99.9458 59.4505 99.9458 59.0533H98.9458C98.9458 59.3921 98.9162 59.7235 98.8595 60.0451L99.8443 60.2188ZM99.9458 59.0533C99.9458 56.1074 98.0361 53.609 95.3914 52.7425L95.0801 53.6928C97.3232 54.4277 98.9458 56.5494 98.9458 59.0533H99.9458ZM95.7242 53.3244C95.825 52.8634 95.878 52.3848 95.878 51.8944H94.878C94.878 52.3126 94.8328 52.7196 94.7473 53.1109L95.7242 53.3244ZM95.878 51.8944C95.878 48.9809 94.0099 46.5051 91.4104 45.6128L91.0858 46.5586C93.2908 47.3155 94.878 49.418 94.878 51.8944H95.878ZM91.7427 46.1592C91.787 45.8612 91.8099 45.5564 91.8099 45.2465H90.8099C90.8099 45.507 90.7906 45.7626 90.7535 46.0121L91.7427 46.1592ZM91.8099 45.2465C91.8099 41.8665 89.0844 39.1216 85.7164 39.1216V40.1216C88.5268 40.1216 90.8099 42.4135 90.8099 45.2465H91.8099ZM85.7164 39.1216C85.5205 39.1216 85.3267 39.1309 85.1354 39.1491L85.2301 40.1446C85.39 40.1294 85.5522 40.1216 85.7164 40.1216V39.1216ZM85.6805 39.6937C85.6986 39.5015 85.7079 39.3069 85.7079 39.1102H84.7079C84.7079 39.2756 84.7001 39.4389 84.6849 39.6L85.6805 39.6937ZM85.7079 39.1102C85.7079 35.7302 82.9823 32.9853 79.6143 32.9853V33.9853C82.4248 33.9853 84.7079 36.2772 84.7079 39.1102H85.7079ZM79.6143 32.9853C79.217 32.9853 78.8281 33.0236 78.4512 33.0968L78.642 34.0785C78.9564 34.0174 79.2814 33.9853 79.6143 33.9853V32.9853ZM78.9969 33.3702C78.0106 31.3283 75.9266 29.9171 73.5123 29.9171V30.9171C75.5263 30.9171 77.2697 32.0935 78.0964 33.8051L78.9969 33.3702ZM73.5123 29.9171C72.4851 29.9171 71.516 30.173 70.666 30.6251L71.1356 31.508C71.8447 31.1308 72.653 30.9171 73.5123 30.9171V29.9171ZM71.3947 30.9889C70.9353 28.0654 68.4179 25.8264 65.376 25.8264V26.8264C67.9138 26.8264 70.0221 28.6953 70.4068 31.1442L71.3947 30.9889ZM65.376 25.8264C64.2515 25.8264 63.1968 26.1331 62.2918 26.6679L62.8005 27.5288C63.5559 27.0825 64.4355 26.8264 65.376 26.8264V25.8264ZM63.0206 26.9406C62.2132 24.5122 59.9321 22.7583 57.24 22.7583V23.7583C59.4856 23.7583 61.3951 25.2212 62.0717 27.2561L63.0206 26.9406ZM57.24 22.7583C54.5479 22.7583 52.2668 24.5123 51.4594 26.9408L52.4084 27.2562C53.0849 25.2213 54.9944 23.7583 57.24 23.7583V22.7583ZM52.1883 26.6681C51.2833 26.1332 50.2285 25.8264 49.1038 25.8264V26.8264C50.0444 26.8264 50.9241 27.0825 51.6795 27.5289L52.1883 26.6681ZM49.1038 25.8264C47.0658 25.8264 45.2625 26.8325 44.1573 28.3738L44.97 28.9565C45.8963 27.6647 47.4032 26.8264 49.1038 26.8264V25.8264ZM44.8863 28.2832C43.8274 27.3886 42.4598 26.849 40.9678 26.849V27.849C42.2143 27.849 43.3553 28.2989 44.241 29.0471L44.8863 28.2832ZM40.9678 26.849C37.7808 26.849 35.1693 29.3067 34.8976 32.4349L35.8938 32.5214C36.1214 29.9009 38.3087 27.849 40.9678 27.849V26.849ZM35.3641 31.9791C31.2936 32.237 28.0403 35.5044 27.7729 39.5889L28.7708 39.6543C29.0056 36.0669 31.863 33.203 35.4273 32.9771L35.3641 31.9791ZM28.2726 39.1216L28.256 39.1216L28.2544 40.1216L28.271 40.1216L28.2726 39.1216ZM28.2552 39.1216C25.168 39.1216 22.6702 41.6375 22.6702 44.7352H23.6702C23.6702 42.1845 25.7256 40.1216 28.2552 40.1216V39.1216ZM22.6702 44.7352C22.6702 45.5751 22.854 46.3733 23.184 47.0901L24.0924 46.6719C23.8216 46.0837 23.6702 45.4279 23.6702 44.7352H22.6702ZM23.5437 46.39C20.7272 46.9319 18.6021 49.4203 18.6021 52.4056H19.6021C19.6021 49.9048 21.3819 47.8243 23.7327 47.372L23.5437 46.39ZM18.6021 52.4056C18.6021 53.4846 18.8801 54.4999 19.3685 55.3816L20.2432 54.897C19.835 54.16 19.6021 53.311 19.6021 52.4056H18.6021ZM19.6747 54.6568C17.2977 55.3029 15.5511 57.4851 15.551 60.076L16.551 60.0761C16.5511 57.9444 17.9876 56.1517 19.937 55.6218L19.6747 54.6568Z" fill="#E3E3E3"/>
<path d="M93.2936 52.5718C92.3868 52.412 90.7778 52.7077 91.5968 55.1687C90.4098 54.5092 87.8644 54.0095 87.1794 57.2865C87.3068 56.4724 87.1674 54.8905 85.59 55.0759" stroke="#EEEEEE" stroke-width="0.6" stroke-linecap="round" stroke-linejoin="round"/>
<path fill-rule="evenodd" clip-rule="evenodd" d="M85.2768 59.6832H59.7996C59.6307 56.1901 60.7024 52.3644 63.0672 48.9887C67.9197 42.0618 76.3797 39.6528 81.963 43.6081C86.6059 46.8973 87.7976 53.5517 85.2768 59.6832Z" fill="#F5EEDB"/>
<path d="M91.4236 11.6732L60.9865 45.2037C60.6159 45.6119 60.6455 46.2428 61.0526 46.6144L67.7038 52.685C68.0967 53.0436 68.7017 53.0318 69.0804 52.658L101.085 21.0679C101.881 20.2821 101.879 18.9965 101.079 18.2146L94.3028 11.5874C93.4924 10.7947 92.1856 10.8337 91.4236 11.6732Z" fill="#EBC9A1"/>
<path d="M97.3798 16.8194L95.1995 14.6748L54.6977 57.6634L97.3798 16.8194Z" fill="#D4AF82"/>
<path fill-rule="evenodd" clip-rule="evenodd" d="M82.2258 59.6454H56.7486C56.5797 56.1522 57.6514 52.3266 60.0162 48.9509C64.8687 42.024 73.3287 39.615 78.912 43.5703C83.5549 46.8595 84.7465 53.5139 82.2258 59.6454Z" fill="#FFFCF4"/>
<path fill-rule="evenodd" clip-rule="evenodd" d="M75.5003 59.6466C75.5478 59.3126 75.5724 58.9711 75.5724 58.6239C75.5724 54.67 72.3851 51.4648 68.4533 51.4648C64.5215 51.4648 61.3342 54.67 61.3342 58.6239C61.3342 58.9711 61.3588 59.3126 61.4063 59.6466H75.5003Z" fill="#FFB661"/>
<path fill-rule="evenodd" clip-rule="evenodd" d="M71.5669 59.6478C71.8391 58.8308 71.9865 57.9562 71.9865 57.047C71.9865 54.966 71.214 53.0665 69.9415 51.6227C73.1589 52.3108 75.5724 55.1844 75.5724 58.625C75.5724 58.9723 75.5478 59.3138 75.5003 59.6478H71.5669Z" fill="#FF9A3D"/>
<path fill-rule="evenodd" clip-rule="evenodd" d="M52.8703 45.8212C53.7699 43.8582 55.6756 42.4335 57.971 42.2649C61.3321 42.018 64.2558 44.5579 64.5014 47.9378C64.5141 48.1127 64.5193 48.2863 64.5175 48.4585C65.8564 49.4873 66.7678 51.0659 66.9002 52.8888C67.0985 55.6179 65.4899 58.0603 63.0937 59.0297V59.0545H46.9384C45.5895 57.7832 44.6937 56.0182 44.5484 54.0179C44.2415 49.7929 47.3987 46.1177 51.6001 45.8091C52.0302 45.7775 52.4546 45.7824 52.8703 45.8212Z" fill="#9FE081"/>
<path fill-rule="evenodd" clip-rule="evenodd" d="M41.6516 51.9995C40.6123 50.1075 38.6083 48.8262 36.3068 48.8262C32.9367 48.8262 30.2047 51.5735 30.2047 54.9625C30.2047 55.1377 30.212 55.3113 30.2263 55.4828C29.2058 56.3927 28.4906 57.6412 28.255 59.0532H50.5281C50.2664 55.0555 46.9589 51.8944 42.9173 51.8944C42.4861 51.8944 42.0633 51.9304 41.6516 51.9995Z" fill="#95C843"/>
<ellipse cx="37.4084" cy="44.7732" rx="1.01701" ry="1.02272" fill="#D9D9D9"/>
<ellipse cx="43.5104" cy="35.5689" rx="1.01701" ry="1.02272" fill="#D9D9D9"/>
<ellipse cx="50.6293" cy="41.7051" rx="1.01701" ry="1.02272" fill="#D9D9D9"/>
<path d="M31.8014 56.0854C32.4994 56.051 33.7165 56.3636 33.0006 57.8889C33.9309 57.5534 35.892 57.4238 36.2938 59.5894C36.2266 59.0546 36.3914 58.0449 37.5885 58.2839" stroke="#80B728" stroke-width="0.6" stroke-linecap="round" stroke-linejoin="round"/>
<path d="M44.8658 54.013C44.4414 54.1215 43.7684 54.5327 44.4718 55.3088C43.8541 55.281 42.6558 55.5665 42.8047 56.9305C42.7488 56.5996 42.4683 56.0287 41.7942 56.3924" stroke="#80B728" stroke-width="0.6" stroke-linecap="round" stroke-linejoin="round"/>
<path d="M29.2788 50.9728C28.9778 50.6529 28.293 50.2621 27.9615 51.2578C27.6848 50.7017 26.8533 49.7882 25.7411 50.5832C26.0013 50.373 26.3606 49.8486 25.7164 49.4336" stroke="#EEEEEE" stroke-width="0.6" stroke-linecap="round" stroke-linejoin="round"/>
<path d="M52.7065 50.4963C52.3898 50.1922 51.6862 49.8366 51.4052 50.8479C51.1009 50.3066 50.2246 49.4366 49.1538 50.2871C49.403 50.0639 49.7355 49.5219 49.0713 49.1402" stroke="#85D65F" stroke-width="0.6" stroke-linecap="round" stroke-linejoin="round"/>
<path d="M62.3761 49.982C61.4556 49.9639 59.9107 50.504 61.095 52.8096C59.8215 52.3409 57.2301 52.2393 57.0525 55.5832C57.0544 54.7591 56.6755 53.2174 55.145 53.6437" stroke="#85D65F" stroke-width="0.6" stroke-linecap="round" stroke-linejoin="round"/>
<path d="M64.41 31.5733C63.4895 31.5552 61.9446 32.0953 63.129 34.4009C61.8555 33.9322 59.264 33.8306 59.0864 37.1745C59.0883 36.3504 58.7095 34.8087 57.179 35.235" stroke="#EEEEEE" stroke-width="0.6" stroke-linecap="round" stroke-linejoin="round"/>
<path d="M32.3547 53.2413C32.9813 52.016 34.7707 50.5073 35.5114 50.4797" stroke="white" stroke-linecap="round" stroke-linejoin="round"/>
<ellipse cx="31.8147" cy="54.4894" rx="0.508505" ry="0.511359" fill="white"/>
<path d="M59.0073 43.7881C60.3698 43.9338 62.4146 45.0677 62.7074 45.7524" stroke="white" stroke-linecap="round" stroke-linejoin="round"/>
<ellipse cx="0.511206" cy="0.508659" rx="0.511206" ry="0.508659" transform="matrix(0.230562 0.973058 -0.972473 0.233017 63.8228 46.8186)" fill="white"/>
<ellipse cx="1.1163" cy="1.11074" rx="1.1163" ry="1.11074" transform="matrix(0.230562 0.973058 -0.972473 0.233017 70.0789 51.9321)" fill="white"/>
<ellipse cx="0.438849" cy="0.436663" rx="0.438849" ry="0.436663" transform="matrix(0.230562 0.973058 -0.972473 0.233017 71.8188 53.978)" fill="white"/>
<path fill-rule="evenodd" clip-rule="evenodd" d="M13 61.728C13 60.2508 14.1975 59.0532 15.6748 59.0532H98.8052C100.282 59.0532 101.48 60.2508 101.48 61.728C101.48 63.2499 101.374 64.7469 101.169 66.2123H13.3108C13.1059 64.7469 13 63.2499 13 61.728Z" fill="#A5C3E5"/>
<path fill-rule="evenodd" clip-rule="evenodd" d="M15.6748 59.0913C14.1975 59.0913 13 60.2889 13 61.7661C13 78.9609 26.5206 92.9978 43.5103 93.8251V99.0001C43.5103 99.5524 43.958 100 44.5103 100H69.9696C70.5218 100 70.9696 99.5524 70.9696 99.0001V93.8251C87.9593 92.9978 101.48 78.9609 101.48 61.7661C101.48 60.2889 100.282 59.0913 98.8052 59.0913H15.6748Z" fill="#CFE6F7"/>
<path fill-rule="evenodd" clip-rule="evenodd" d="M13 61.7661C13 60.2889 14.1975 59.0913 15.6748 59.0913H98.8052C100.282 59.0913 101.48 60.2889 101.48 61.7661C101.48 63.2879 101.374 64.785 101.169 66.2504H13.3108C13.1059 64.785 13 63.2879 13 61.7661Z" fill="#A5C3E5"/>
<path fill-rule="evenodd" clip-rule="evenodd" d="M62.8333 100H69.9695C70.5218 100 70.9695 99.5524 70.9695 99.0001V93.8251C87.9593 92.9978 101.48 78.9609 101.48 61.7661C101.48 60.2889 100.282 59.0913 98.8052 59.0913H76.878C78.2635 66.4231 79.1904 79.8418 73.5119 85.1715C67.7723 90.5585 64.2822 93.05 63.0415 93.7526C62.9757 93.7898 62.9057 93.8173 62.8333 93.8357V100Z" fill="#B3D4EC"/>
<path fill-rule="evenodd" clip-rule="evenodd" d="M77.7911 66.2501C77.6078 63.599 77.2606 61.1133 76.8784 59.0908H98.8052C100.282 59.0908 101.48 60.2884 101.48 61.7656C101.48 63.2875 101.374 64.7847 101.169 66.2501H77.7911Z" fill="#96ACE6"/>
</g>
</svg>
