<svg width="19" height="19" viewBox="0 0 19 19" fill="none" xmlns="http://www.w3.org/2000/svg">
<path d="M8.08984 8.53516C8.48568 8.90625 8.95573 9.0918 9.5 9.0918C10.0443 9.0918 10.502 8.90625 10.873 8.53516C11.2689 8.13932 11.4668 7.66927 11.4668 7.125C11.4668 6.58073 11.2689 6.12305 10.873 5.75195C10.502 5.35612 10.0443 5.1582 9.5 5.1582C8.95573 5.1582 8.48568 5.35612 8.08984 5.75195C7.71875 6.12305 7.5332 6.58073 7.5332 7.125C7.5332 7.66927 7.71875 8.13932 8.08984 8.53516ZM5.56641 3.22852C6.65495 2.13997 7.96615 1.5957 9.5 1.5957C11.0339 1.5957 12.3327 2.13997 13.3965 3.22852C14.485 4.29232 15.0293 5.59115 15.0293 7.125C15.0293 7.89193 14.8314 8.77018 14.4355 9.75977C14.0645 10.7493 13.6068 11.6771 13.0625 12.543C12.5182 13.4089 11.974 14.2253 11.4297 14.9922C10.9102 15.7344 10.4648 16.3281 10.0938 16.7734L9.5 17.4043C9.35156 17.2311 9.15365 17.0085 8.90625 16.7363C8.65885 16.4395 8.21354 15.8704 7.57031 15.0293C6.92708 14.1634 6.35807 13.3346 5.86328 12.543C5.39323 11.7266 4.96029 10.8112 4.56445 9.79688C4.16862 8.78255 3.9707 7.89193 3.9707 7.125C3.9707 5.59115 4.5026 4.29232 5.56641 3.22852Z" fill="#1E50A7"/>
</svg>
