<svg width="30" height="30" viewBox="0 0 30 30" fill="none" xmlns="http://www.w3.org/2000/svg">
<path d="M18.9824 4.25798L9.26616 14.2255C9.09551 14.4006 9 14.6354 9 14.8799C9 15.1243 9.09551 15.3592 9.26616 15.5342L18.9824 25.5055C19.0619 25.5871 19.1569 25.652 19.2619 25.6963C19.3669 25.7406 19.4797 25.7635 19.5937 25.7635C19.7076 25.7635 19.8204 25.7406 19.9254 25.6963C20.0304 25.652 20.1254 25.5871 20.2049 25.5055C20.3685 25.338 20.46 25.1133 20.46 24.8792C20.46 24.6452 20.3685 24.4204 20.2049 24.253L11.068 14.8799L20.2049 5.50861C20.3679 5.34126 20.4591 5.11689 20.4591 4.88329C20.4591 4.6497 20.3679 4.42533 20.2049 4.25798C20.1254 4.17634 20.0304 4.11145 19.9254 4.06714C19.8204 4.02283 19.7076 4 19.5937 4C19.4797 4 19.3669 4.02283 19.2619 4.06714C19.1569 4.11145 19.0619 4.17634 18.9824 4.25798Z" fill="white"/>
</svg>
