<svg width="32" height="32" viewBox="0 0 32 32" fill="none" xmlns="http://www.w3.org/2000/svg">
<path d="M13.4654 0C6.02863 0 0.000168318 6.02914 0 13.4654C0 20.9017 6.02863 26.9308 13.4654 26.9308C16.5569 26.9308 19.4582 25.8384 21.7311 24.0863L29.0873 31.5074C29.7447 32.1638 30.8496 32.1638 31.507 31.5074C32.1643 30.8493 32.1643 29.7451 31.507 29.087L24.091 21.7214C25.8428 19.4491 26.9308 16.5574 26.9308 13.4654C26.9308 6.02914 20.9022 0 13.4654 0ZM13.4654 3.36635C19.0429 3.36635 23.5643 7.88737 23.5645 13.4654C23.5645 19.0435 19.0429 23.5645 13.4654 23.5645C7.88787 23.5645 3.36652 19.0435 3.36635 13.4654C3.36635 7.88737 7.88787 3.36635 13.4654 3.36635Z" fill="white"/>
</svg>
