<svg width="15" height="16" viewBox="0 0 15 16" fill="none" xmlns="http://www.w3.org/2000/svg">
<path d="M5.57888 9.94796C7.52239 11.8915 9.75765 13.3098 11.58 13.3098C12.4058 13.3098 13.1105 13.0181 13.6851 12.3897C14.0307 12.0082 14.2416 11.5728 14.2416 11.1509C14.2461 10.8322 14.116 10.5225 13.8197 10.307L11.8717 8.92459C11.58 8.71363 11.3286 8.61488 11.0997 8.61937C10.8079 8.61488 10.5476 8.78544 10.2648 9.06822L9.81151 9.52155C9.73969 9.59337 9.65441 9.61581 9.56464 9.61581C9.4659 9.62479 9.37613 9.5799 9.31329 9.54399C8.93626 9.31059 8.24952 8.75851 7.50892 8.01791C6.76832 7.27732 6.20727 6.60853 5.98733 6.20906C5.95591 6.15071 5.92 6.06094 5.91552 5.96668C5.92 5.8814 5.94245 5.8051 6.00977 5.72879L6.46311 5.26648C6.74139 4.97922 6.91196 4.71889 6.91196 4.43163C6.91196 4.19823 6.81321 3.94687 6.60225 3.65512L5.23776 1.73406C5.01782 1.42435 4.69914 1.29419 4.35353 1.2897C3.9361 1.28521 3.50521 1.4827 3.12817 1.84178C2.50877 2.43426 2.24395 3.16588 2.24395 3.9738C2.24395 5.79612 3.63537 8.00445 5.57888 9.94796Z" fill="#1E50A7"/>
<path d="M13.6851 12.3897L14.4231 13.0645L14.4262 13.0611L13.6851 12.3897ZM14.2416 11.1509L13.2416 11.1368L13.2416 11.1509L14.2416 11.1509ZM13.8197 10.307L14.4079 9.49824L14.3985 9.49153L13.8197 10.307ZM11.8717 8.92459L11.2857 9.73497L11.293 9.74009L11.8717 8.92459ZM11.0997 8.61937L11.0843 9.61925L11.1018 9.61952L11.1193 9.61918L11.0997 8.61937ZM9.56464 9.61581L9.56464 8.61581L9.51928 8.61581L9.47411 8.61992L9.56464 9.61581ZM9.31329 9.54399L8.78693 10.3943L8.80188 10.4035L8.81715 10.4122L9.31329 9.54399ZM5.98733 6.20906L5.10682 6.68318L5.11132 6.69136L5.98733 6.20906ZM5.91552 5.96668L4.9169 5.91412L4.91426 5.96418L4.91665 6.01425L5.91552 5.96668ZM6.00977 5.72879L5.29577 5.02865L5.27735 5.04744L5.25994 5.06717L6.00977 5.72879ZM6.46311 5.26648L7.17713 5.96664L7.18135 5.96228L6.46311 5.26648ZM6.60225 3.65512L5.78695 4.23422L5.7919 4.24107L6.60225 3.65512ZM5.23776 1.73406L4.42243 2.31306L4.42248 2.31313L5.23776 1.73406ZM4.35353 1.2897L4.36651 0.289779L4.36428 0.289756L4.35353 1.2897ZM3.12817 1.84178L2.43852 1.11764L2.43695 1.11914L3.12817 1.84178ZM4.87177 10.6551C5.88889 11.6722 7.0012 12.5716 8.1229 13.2226C9.23246 13.8666 10.4243 14.3098 11.58 14.3098L11.58 12.3098C10.9133 12.3098 10.0764 12.0439 9.12683 11.4928C8.18945 10.9488 7.21238 10.1672 6.28599 9.24085L4.87177 10.6551ZM11.58 14.3098C12.675 14.3098 13.6514 13.9084 14.4231 13.0645L12.947 11.7149C12.5696 12.1277 12.1367 12.3098 11.58 12.3098L11.58 14.3098ZM14.4262 13.0611C14.8744 12.5663 15.2416 11.9022 15.2416 11.1509L13.2416 11.1509C13.2416 11.2434 13.187 11.45 12.9439 11.7183L14.4262 13.0611ZM15.2415 11.1649C15.2502 10.5482 14.9879 9.92011 14.4079 9.4983L13.2315 11.1158C13.2365 11.1194 13.2397 11.1222 13.2416 11.1239C13.2434 11.1256 13.2441 11.1265 13.2442 11.1265C13.2442 11.1266 13.2438 11.1261 13.2432 11.1251C13.2426 11.1242 13.242 11.1231 13.2414 11.1219C13.2402 11.1195 13.2402 11.1185 13.2406 11.1202C13.241 11.1221 13.2419 11.1274 13.2417 11.1368L15.2415 11.1649ZM14.3985 9.49153L12.4505 8.10908L11.293 9.74009L13.241 11.1225L14.3985 9.49153ZM12.4577 8.11424C12.0818 7.84245 11.6171 7.60903 11.0801 7.61956L11.1193 9.61918C11.0794 9.61996 11.0677 9.61058 11.095 9.62134C11.1254 9.63335 11.1877 9.66405 11.2858 9.73494L12.4577 8.11424ZM11.1151 7.61949C10.3943 7.6084 9.87907 8.03978 9.55774 8.36111L10.972 9.77532C11.0247 9.7226 11.0679 9.68368 11.1031 9.65514C11.1383 9.62659 11.1607 9.61246 11.1712 9.6065C11.1811 9.60092 11.1763 9.60495 11.1584 9.61002C11.1391 9.61547 11.1132 9.6197 11.0843 9.61925L11.1151 7.61949ZM9.55774 8.36111L9.1044 8.81445L10.5186 10.2287L10.972 9.77532L9.55774 8.36111ZM9.1044 8.81445C9.17672 8.74213 9.26661 8.68613 9.36332 8.65215C9.45416 8.62024 9.52774 8.61581 9.56464 8.61581L9.56464 10.6158C9.83532 10.6158 10.207 10.5402 10.5186 10.2287L9.1044 8.81445ZM9.47411 8.61992C9.60263 8.60823 9.70019 8.63381 9.74919 8.65057C9.79594 8.66657 9.82218 8.68304 9.80943 8.67575L8.81715 10.4122C8.89249 10.4553 9.22156 10.6511 9.65518 10.6117L9.47411 8.61992ZM9.83964 8.69373C9.55401 8.51691 8.92886 8.02364 8.21603 7.31081L6.80182 8.72502C7.57018 9.49339 8.3185 10.1043 8.78693 10.3943L9.83964 8.69373ZM8.21603 7.31081C7.47999 6.57477 7.00919 5.99167 6.86334 5.72676L5.11132 6.69136C5.40534 7.2254 6.05665 7.97986 6.80182 8.72502L8.21603 7.31081ZM6.8678 5.73496C6.87682 5.75171 6.88515 5.77001 6.89255 5.79283C6.89963 5.81467 6.91146 5.8578 6.91438 5.91912L4.91665 6.01425C4.93077 6.31073 5.035 6.54971 5.10686 6.68316L6.8678 5.73496ZM6.91413 6.01924C6.91257 6.04896 6.90594 6.11331 6.87651 6.19256C6.84583 6.27515 6.80228 6.34206 6.75961 6.39042L5.25994 5.06717C5.01472 5.34508 4.93075 5.65098 4.9169 5.91412L6.91413 6.01924ZM6.72378 6.42894L7.17711 5.96662L5.7491 4.56634L5.29577 5.02865L6.72378 6.42894ZM7.18135 5.96228C7.48979 5.64388 7.91196 5.13507 7.91196 4.43163L5.91196 4.43163C5.91196 4.36601 5.93407 4.33446 5.92146 4.35676C5.90337 4.38874 5.85605 4.45592 5.74487 4.57069L7.18135 5.96228ZM7.91196 4.43163C7.91196 3.90569 7.68793 3.44995 7.4126 3.06918L5.7919 4.24107C5.93849 4.44379 5.91196 4.49076 5.91196 4.43163L7.91196 4.43163ZM7.41753 3.07605L6.05303 1.15498L4.42248 2.31313L5.78698 4.23419L7.41753 3.07605ZM6.05308 1.15506C5.61693 0.540883 4.9732 0.29766 4.36651 0.289781L4.34054 2.28961C4.36637 2.28995 4.3844 2.29255 4.39566 2.29498C4.40664 2.29735 4.41135 2.29957 4.41179 2.29978C4.41212 2.29994 4.41193 2.29987 4.41145 2.29956C4.41095 2.29924 4.41069 2.29902 4.41078 2.29909C4.41087 2.29917 4.41182 2.29997 4.41361 2.30192C4.4154 2.30387 4.41842 2.30741 4.42243 2.31306L6.05308 1.15506ZM4.36428 0.289756C3.61905 0.281742 2.94906 0.631418 2.43852 1.11764L3.81783 2.56592C4.06136 2.33399 4.25315 2.28868 4.34278 2.28964L4.36428 0.289756ZM2.43695 1.11914C1.59764 1.92196 1.24395 2.92601 1.24395 3.9738L3.24395 3.9738C3.24395 3.40575 3.41989 2.94656 3.8194 2.56442L2.43695 1.11914ZM1.24395 3.9738C1.24395 5.12648 1.67825 6.31035 2.31667 7.41561C2.96136 8.53172 3.8546 9.63789 4.87177 10.6551L6.28599 9.24085C5.35965 8.31451 4.58543 7.34477 4.04852 6.41526C3.50535 5.4749 3.24395 4.64344 3.24395 3.9738L1.24395 3.9738Z" fill="#1E50A7"/>
</svg>
