<svg width="24" height="24" viewBox="0 0 24 24" fill="none" xmlns="http://www.w3.org/2000/svg">
<path d="M8.03693 2.01416C7.48493 2.01416 7.03693 2.46216 7.03693 3.01416C4.82593 3.01416 3.00592 4.80716 3.00592 7.01416V9.01416L3.03693 17.0142C3.03693 19.2202 4.82793 21.0142 7.03693 21.0142H17.0369C19.2459 21.0142 21.0369 19.2232 21.0369 17.0142L21.0059 9.01416V7.01416C21.0059 4.80316 19.2439 3.01416 17.0369 3.01416C17.0369 2.46216 16.5899 2.01416 16.0369 2.01416C15.4849 2.01416 15.0369 2.46216 15.0369 3.01416H9.03693C9.03693 2.46216 8.58993 2.01416 8.03693 2.01416ZM7.03693 5.01416C7.03693 5.56616 7.48493 6.01416 8.03693 6.01416C8.58993 6.01416 9.03693 5.56616 9.03693 5.01416H15.0369C15.0369 5.56616 15.4849 6.01416 16.0369 6.01416C16.5899 6.01416 17.0369 5.56616 17.0369 5.01416C18.1339 5.01416 19.0059 5.90216 19.0059 7.01416V8.01416C17.0819 8.01416 6.92992 8.01416 5.00592 8.01416V7.01416C5.00592 5.91716 5.92493 5.01416 7.03693 5.01416ZM5.00592 10.0142C6.92992 10.0142 17.0819 10.0142 19.0059 10.0142L19.0369 17.0142C19.0369 18.1152 18.1419 19.0142 17.0369 19.0142H7.03693C5.93293 19.0142 5.03693 18.1192 5.03693 17.0142L5.00592 10.0142Z" fill="white"/>
</svg>
