<svg width="69" height="36" viewBox="0 0 69 36" fill="none" xmlns="http://www.w3.org/2000/svg">
<path fill-rule="evenodd" clip-rule="evenodd" d="M44.0103 8.27441C44.35 8.27441 44.6254 8.54977 44.6254 8.88945V11.9628C44.6656 11.9526 44.7059 11.9412 44.7457 11.9284C45.1418 11.8019 45.2404 11.6485 45.2404 11.4828V9.12521C45.2404 8.78554 45.5158 8.51018 45.8554 8.51018C46.1951 8.51018 46.4705 8.78554 46.4705 9.12521V11.4828C46.4705 12.496 45.6465 12.932 45.12 13.1002C44.9467 13.1555 44.7767 13.1931 44.6254 13.2188V18.32C44.6254 18.6596 44.35 18.935 44.0103 18.935C43.6707 18.935 43.3953 18.6596 43.3953 18.32V13.2188C43.244 13.1931 43.0739 13.1555 42.9006 13.1002C42.3742 12.932 41.5502 12.496 41.5502 11.4828V9.12521C41.5502 8.78554 41.8256 8.51018 42.1652 8.51018C42.5049 8.51018 42.7803 8.78554 42.7803 9.12521V11.4828C42.7803 11.6485 42.8789 11.8019 43.2749 11.9284C43.3148 11.9412 43.3551 11.9526 43.3953 11.9628V8.88945C43.3953 8.54977 43.6707 8.27441 44.0103 8.27441Z" fill="white"/>
<path d="M33.9383 13.8586C33.2986 13.8586 32.6836 14.1785 32.6836 14.8919V17.2044C32.6836 18.7789 32.1916 19.8614 31.0353 20.8454C29.879 21.8049 28.8458 22.5921 27.6895 23.4286C27.0991 23.8468 27.1729 24.5356 27.4927 25.0031C27.8125 25.4213 28.4522 25.6919 29.018 25.2983C30.0513 24.5602 31.0599 23.773 32.0932 22.912C33.2986 21.9525 33.8399 21.2637 33.9629 20.6978H33.9875C34.1105 21.2145 34.6025 21.8295 35.808 22.8135C36.8412 23.6746 37.8499 24.4372 38.5141 24.9047C39.08 25.3229 39.695 25.0523 40.0148 24.6094C40.3592 24.142 40.3838 23.5024 39.8426 23.1088C39.0308 22.5183 37.9975 21.7311 36.8412 20.7716C35.685 19.7876 35.1929 18.7051 35.1929 17.1306V14.8919C35.1929 14.1785 34.6025 13.8586 33.9383 13.8586ZM44.0248 13.1206C43.3852 13.1206 42.7948 13.4404 42.7948 14.1539V25.3967C42.7948 26.1101 43.3852 26.4299 44.0248 26.4299C44.6645 26.4299 45.2549 26.1101 45.2549 25.3967V14.1539C45.2549 13.4404 44.6645 13.1206 44.0248 13.1206ZM31.3305 27.4878C30.7155 27.4878 30.4449 27.9798 30.4449 28.5457C30.4449 29.1115 30.7155 29.6035 31.3305 29.6035H42.2781C42.6472 29.6035 42.7948 29.7265 42.7948 30.0956V34.9666C42.7948 35.6801 43.3852 35.9999 44.0248 35.9999C44.6645 35.9999 45.2549 35.6801 45.2549 34.9666V29.3329C45.2549 27.9306 44.7875 27.4878 43.3606 27.4878H31.3305Z" fill="white"/>
<path fill-rule="evenodd" clip-rule="evenodd" d="M66.5616 8.88929C66.9432 8.88929 67.5867 8.44741 67.5867 7.45421C67.5867 6.46101 66.9432 6.01913 66.5616 6.01913C66.1801 6.01913 65.5366 6.46101 65.5366 7.45421C65.5366 8.44741 66.1801 8.88929 66.5616 8.88929ZM66.5616 10.1194C67.8071 10.1194 68.8168 8.92613 68.8168 7.45421C68.8168 5.98229 67.8071 4.78906 66.5616 4.78906C65.3162 4.78906 64.3065 5.98229 64.3065 7.45421C64.3065 8.92613 65.3162 10.1194 66.5616 10.1194Z" fill="white"/>
<path fill-rule="evenodd" clip-rule="evenodd" d="M67.1767 9.70947H65.9466V11.7596H67.1767V9.70947Z" fill="white"/>
<path d="M0.342926 7.2492C0.342926 5.8905 1.44437 4.78906 2.80306 4.78906H5.01575V10.2273H0.342926V7.2492Z" fill="white"/>
<path d="M16.1136 7.2492C16.1136 5.8905 15.0121 4.78906 13.6534 4.78906H11.4408V10.2273H16.1136V7.2492Z" fill="white"/>
<path d="M5.59973 4.78906H10.8567V10.2273H5.59973V4.78906Z" fill="white"/>
<path d="M8.52029 10.771H16.1136V15.9243C16.1136 17.283 15.0122 18.3845 13.6535 18.3845H8.52029V10.771Z" fill="white"/>
<path d="M7.93613 10.771H0.342793V15.9243C0.342793 17.283 1.44423 18.3845 2.80293 18.3845H7.93613V10.771Z" fill="white"/>
<path d="M23.9336 0C23.3186 0 22.7281 0.319818 22.7281 1.03326V4.62506H19.4069C18.8165 4.62506 18.5705 5.11708 18.5705 5.68292C18.5705 6.24875 18.8165 6.74078 19.4069 6.74078H22.7281V10.2342H19.4069C18.8165 10.2342 18.5705 10.7016 18.5705 11.2674C18.5705 11.8579 18.8165 12.3253 19.4069 12.3253H22.7281V20.2223C22.7281 20.9358 23.3186 21.2556 23.9336 21.2556C24.5486 21.2556 25.1391 20.9358 25.1391 20.2223V1.03326C25.1391 0.319818 24.5486 0 23.9336 0Z" fill="white"/>
<path d="M16.9468 21.6328C12.3217 21.6328 9.6402 23.9945 9.6402 27.9062C9.6402 31.8178 12.3217 34.1795 16.9468 34.1795C21.5719 34.1795 24.278 31.8178 24.278 27.9062C24.278 23.9945 21.5719 21.6328 16.9468 21.6328ZM16.9468 23.7239C20.3418 23.7239 21.7933 25.5444 21.7933 27.9062C21.7933 30.2679 20.3418 32.0884 16.9468 32.0884C13.5518 32.0884 12.1003 30.2679 12.1003 27.9062C12.1003 25.5444 13.5518 23.7239 16.9468 23.7239Z" fill="white"/>
<path d="M55.8744 11.095C52.0612 11.095 50.1176 13.6781 50.1176 18.4508C50.1176 23.2235 52.0612 25.8066 55.8744 25.8066C59.6876 25.8066 61.6557 23.2235 61.6557 18.4508C61.6557 13.6781 59.6876 11.095 55.8744 11.095ZM55.8744 13.2599C58.3099 13.2599 59.2694 15.105 59.2694 18.4508C59.2694 21.7966 58.3099 23.6417 55.8744 23.6417C53.4634 23.6417 52.504 21.7966 52.504 18.4508C52.504 15.105 53.4634 13.2599 55.8744 13.2599ZM66.5514 9.84033C65.9363 9.84033 65.3213 10.1601 65.3213 10.8736V30.0627C65.3213 30.7761 65.9363 31.0959 66.5514 31.0959C67.2156 31.0959 67.806 30.7761 67.806 30.0627V10.8736C67.806 10.1601 67.2156 9.84033 66.5514 9.84033Z" fill="white"/>
</svg>
