<svg width="9" height="10" viewBox="0 0 9 10" fill="none" xmlns="http://www.w3.org/2000/svg">
<path d="M6.9219 1.31739L7.98507 5.31739C8.00172 5.38001 8.00449 5.44589 7.99316 5.50984C7.98183 5.5738 7.95672 5.63409 7.91979 5.68598C7.88286 5.73788 7.83512 5.77996 7.78032 5.80894C7.72552 5.83791 7.66515 5.85298 7.60395 5.85297H5.3309C5.19152 5.85297 5.08857 5.99065 5.11985 6.13507L5.21884 6.59065C5.30952 7.00855 5.33862 7.43907 5.30516 7.86644L5.28695 8.09865C5.26743 8.34777 5.16551 8.58147 4.99928 8.75823C4.84722 8.91996 4.64098 9.01083 4.42591 9.01086H4.3784C4.31458 9.01082 4.25193 8.99265 4.19694 8.95823C4.14194 8.92381 4.09659 8.87438 4.06558 8.81507L3.53914 7.80771C3.30311 7.35599 2.95131 6.98483 2.52467 6.73739L1.2063 5.97255C1.14391 5.93635 1.09184 5.88296 1.05554 5.81799C1.01924 5.75302 1.00006 5.67886 1 5.60329V1.43192C1 1.32025 1.04172 1.21315 1.11598 1.13419C1.19023 1.05523 1.29095 1.01086 1.39597 1.01086H6.54098C6.6272 1.01089 6.71105 1.04084 6.7798 1.09617C6.84855 1.15149 6.89845 1.22917 6.9219 1.31739V1.31739Z" stroke="#274984" stroke-linecap="round" stroke-linejoin="round"/>
</svg>
