<svg width="120" height="82" viewBox="0 0 120 82" fill="none" xmlns="http://www.w3.org/2000/svg">
<mask id="mask0_2548_9576" style="mask-type:alpha" maskUnits="userSpaceOnUse" x="0" y="0" width="120" height="82">
<rect width="120" height="82" rx="6" fill="white"/>
</mask>
<g mask="url(#mask0_2548_9576)">
<path fill-rule="evenodd" clip-rule="evenodd" d="M28.2842 46.8974C28.3751 46.3514 28.8913 45.9834 29.4371 46.0754L63.5633 51.8267C64.1091 51.9187 64.4779 52.4359 64.3869 52.9819L56.8023 98.5239C58.357 99.0356 59.3498 100.619 59.0728 102.283C58.7957 103.946 57.344 105.118 55.7085 105.092L55.7022 105.13L55.2399 105.052L55.1986 105.045L40.1298 102.505L19.5994 99.0454L19.6054 99.0098C18.0404 98.5045 17.039 96.9149 17.317 95.245C17.5951 93.5751 19.0569 92.4006 20.7002 92.4361L21.0694 90.2191L17.9784 89.6987C12.793 88.8256 9.28909 83.9129 10.1521 78.7259L14.0361 55.3823C14.8991 50.1953 19.8023 46.6982 24.9876 47.5712L28.0851 48.0928L28.2842 46.8974ZM27.2099 53.348L25.7097 53.0954C22.4348 52.544 19.338 54.7527 18.7929 58.0287L15.5118 77.7492C14.9667 81.0252 17.1797 84.128 20.4547 84.6794L21.95 84.9312L27.2099 53.348Z" fill="#F5D583"/>
<path fill-rule="evenodd" clip-rule="evenodd" d="M52.3663 47.5535C52.3663 48.3569 52.287 49.1417 52.136 49.9004L29.4376 46.075C29.2146 46.0374 28.9966 46.0766 28.8105 46.1733C29.4904 40.2581 34.4866 35.6658 40.549 35.6658C44.5186 35.6658 48.0311 37.6347 50.174 40.6548C50.5161 40.5044 50.8941 40.4209 51.2913 40.4209C52.8338 40.4209 54.0842 41.6789 54.0842 43.2307C54.0842 44.4441 53.3197 45.4779 52.2488 45.8711C52.3262 46.4207 52.3663 46.9824 52.3663 47.5535Z" fill="#FCF2E4"/>
<path d="M34.918 55.2048L29.1612 91.4249" stroke="#E2AA55" stroke-width="5.01108" stroke-linecap="round"/>
<path d="M45.2312 57.3667L39.4745 93.5868" stroke="#E2AA55" stroke-width="5.01108" stroke-linecap="round"/>
<path fill-rule="evenodd" clip-rule="evenodd" d="M46.8792 103.645L55.1987 105.047L55.2403 105.054L55.7023 105.131L55.7086 105.094C57.3442 105.12 58.7959 103.948 59.0729 102.284C59.3499 100.621 58.3571 99.0371 56.8025 98.5255L64.3871 52.9834C64.478 52.4374 64.1092 51.9202 63.5634 51.8282L55.1187 50.405L46.8792 103.645Z" fill="#FDB879"/>
<path d="M55.1149 59.0957L49.3581 95.3158" stroke="#E2AA55" stroke-width="5.01108" stroke-linecap="round"/>
<path fill-rule="evenodd" clip-rule="evenodd" d="M82.1049 44.4293C81.9228 43.9068 81.3519 43.6325 80.8297 43.8166L48.1758 55.3319C47.6537 55.516 47.378 56.0889 47.5601 56.6114L62.7457 100.188C61.3001 100.959 60.59 102.69 61.1448 104.282C61.6996 105.874 63.3288 106.78 64.9359 106.474L64.9482 106.509L65.3513 106.367C65.3773 106.358 65.4032 106.349 65.4291 106.34L99.0296 94.4907C99.0376 94.4878 99.0457 94.485 99.0537 94.4821C99.0625 94.4789 99.0713 94.4757 99.0801 94.4724L99.493 94.3268L99.4814 94.2936C100.938 93.5278 101.655 91.7897 101.099 90.1917C100.542 88.5936 98.9024 87.6866 97.2894 88.0033L96.5504 85.8827L99.5092 84.8399C104.47 83.0913 107.09 77.6496 105.361 72.6854L97.582 50.3515C95.853 45.3873 90.4297 42.7806 85.4688 44.5292L82.5038 45.5742L82.1049 44.4293ZM84.2557 50.6016L85.6918 50.0954C88.825 48.991 92.2503 50.6374 93.3423 53.7726L99.9142 72.6408C101.006 75.776 99.3515 79.2129 96.2183 80.3173L94.7868 80.8218L84.2557 50.6016Z" fill="#FFD771"/>
<path d="M56.8776 59.2851L69.8416 93.5678" stroke="#FFB661" stroke-width="5.01108" stroke-linecap="round"/>
<path d="M66.8883 55.9846L79.8523 90.2672" stroke="#FFB661" stroke-width="5.01108" stroke-linecap="round"/>
<path fill-rule="evenodd" clip-rule="evenodd" d="M69.3396 33.0703C75.4644 33.0703 80.5008 37.7575 81.0977 43.7606C81.0083 43.7664 80.9181 43.7845 80.8293 43.8158L67.2313 48.611L68.9393 53.0921C70.0138 55.9112 68.603 59.0767 65.7882 60.1624C63.4341 61.0704 60.8435 60.2361 59.43 58.2896C58.9867 59.3085 58.1521 60.1564 57.0357 60.5871C54.829 61.4383 52.3573 60.3367 51.515 58.1266L50.1801 54.6241L48.1755 55.331C47.7521 55.4803 47.4907 55.8852 47.5041 56.3115C46.6035 56.3334 45.6574 56.1432 44.8458 55.5494C42.9553 54.1661 43.6284 50.362 44.2013 48.6329L44.2049 48.6313C44.3184 45.5088 46.8705 43.0125 50.0022 43.0125C50.5543 43.0125 51.0884 43.0901 51.5943 43.235C52.1033 40.1653 54.756 37.8255 57.952 37.8255C58.5606 37.8255 59.1496 37.9103 59.7078 38.069C61.8501 35.0435 65.3658 33.0703 69.3396 33.0703Z" fill="#FFF5EF"/>
<path fill-rule="evenodd" clip-rule="evenodd" d="M80.8297 43.8173C81.3518 43.6332 81.9228 43.9075 82.1048 44.43L82.5037 45.5746L85.4684 44.5296C90.4293 42.781 95.8526 45.3878 97.5816 50.3519L105.361 72.6859C107.09 77.65 104.47 83.0917 99.5088 84.8403L96.5503 85.8831L97.2894 88.004C98.9023 87.6873 100.542 88.5943 101.099 90.1923C101.655 91.7903 100.938 93.5285 99.4814 94.2943L99.493 94.3275L99.08 94.4731C99.0633 94.4793 99.0464 94.4854 99.0295 94.4914L91.2487 97.2354L73.5465 46.3857L80.8297 43.8173ZM85.6915 50.0958L84.2556 50.6019L94.7867 80.8222L96.2179 80.3177C99.3511 79.2134 101.006 75.7765 99.9138 72.6412L93.3419 53.7731C92.2499 50.6378 88.8247 48.9915 85.6915 50.0958Z" fill="#FFC24D"/>
<path d="M76.313 52.5256L89.277 86.8083" stroke="#FFB661" stroke-width="5.01108" stroke-linecap="round"/>
<path d="M56.6222 49.8172C56.1359 49.4094 55.0864 48.9654 54.7791 50.4524C54.2876 49.7011 52.9391 48.5317 51.4769 49.8643C51.8148 49.5177 52.2418 48.703 51.2466 48.2173" stroke="#FFE1D7" stroke-width="1.00222" stroke-linecap="round" stroke-linejoin="round"/>
<path d="M44.2014 44.294C43.8607 43.7571 42.9942 43.0141 42.2536 44.3375C42.0115 43.4717 41.0785 41.9462 39.2837 42.7704C39.7101 42.5431 40.3624 41.8969 39.5602 41.1306" stroke="#F4D4BC" stroke-width="1.00222" stroke-linecap="round" stroke-linejoin="round"/>
<path d="M68.6708 36.6047C67.8682 36.8887 66.7048 37.8594 68.472 39.4702C67.2189 39.4789 64.9432 40.2346 65.8657 43.1878C65.6021 42.4736 64.778 41.262 63.5904 42.1294" stroke="#FFE1D7" stroke-width="1.00222" stroke-linecap="round" stroke-linejoin="round"/>
<ellipse cx="35.1775" cy="26.1558" rx="5.58634" ry="5.61965" fill="#FCE4D5"/>
<ellipse cx="25.7232" cy="13.1876" rx="3.86707" ry="3.89053" fill="#FCE4D5"/>
<ellipse cx="57.9524" cy="24.4266" rx="8.59437" ry="8.64561" fill="#FCE4D5"/>
<ellipse cx="72.7776" cy="12.9712" rx="4.94177" ry="4.97123" fill="#FCE4D5"/>
<path d="M30.9423 27.1623C30.6503 25.9348 30.9974 23.8124 31.4954 23.3485" stroke="white" stroke-width="1.00222" stroke-linecap="round" stroke-linejoin="round"/>
<ellipse cx="0.467143" cy="0.467197" rx="0.467143" ry="0.467197" transform="matrix(0.711847 -0.702334 0.698091 0.716009 30.4503 28.5408)" fill="white"/>
<path d="M17.8187 50.2735C18.6314 49.3121 20.5397 48.3419 21.2058 48.4726" stroke="white" stroke-width="1.00222" stroke-linecap="round" stroke-linejoin="round"/>
<ellipse cx="0.465831" cy="0.468505" rx="0.465831" ry="0.468505" transform="matrix(0.986424 0.164216 -0.162327 0.986737 16.4218 50.6873)" fill="white"/>
<path d="M52.9517 18.9536C53.7614 17.9896 55.6666 17.0133 56.3332 17.142" stroke="white" stroke-width="1.00222" stroke-linecap="round" stroke-linejoin="round"/>
<ellipse cx="0.46605" cy="0.468287" rx="0.46605" ry="0.468287" transform="matrix(0.945943 0.324332 -0.320896 0.947115 51.8071 19.239)" fill="white"/>
</g>
</svg>
