<svg width="120" height="82" viewBox="0 0 120 82" fill="none" xmlns="http://www.w3.org/2000/svg">
<mask id="mask0_2548_9659" style="mask-type:alpha" maskUnits="userSpaceOnUse" x="0" y="0" width="120" height="82">
<rect width="120" height="82" rx="6" fill="white"/>
</mask>
<g mask="url(#mask0_2548_9659)">
<path fill-rule="evenodd" clip-rule="evenodd" d="M17.5845 41.0002C15.0135 41.0002 12.9293 43.0844 12.9293 45.6554V58.9835C12.9293 78.875 29.0546 95.0002 48.9461 95.0002C62.7901 95.0002 74.8098 87.1894 80.8388 75.7342C81.1764 75.904 81.5578 75.9997 81.9615 75.9997C84.2793 75.9997 87.7003 75.3252 90.6138 73.2285C93.6548 71.04 95.968 67.4145 95.968 61.9997C95.968 56.724 94.0074 53.2505 91.1187 51.2929C89.1071 49.9297 86.8545 49.4452 84.9628 49.4105V45.6554C84.9628 43.0844 82.8786 41.0002 80.3076 41.0002H17.5845ZM84.9628 54.4107V58.9835C84.9628 63.1758 84.2465 67.2008 82.9297 70.9428C84.3686 70.7815 86.1761 70.261 87.6909 69.1708C89.4438 67.9093 90.9657 65.7849 90.9657 61.9997C90.9657 58.0753 89.5914 56.2988 88.3115 55.4314C87.2737 54.7281 86.0325 54.4443 84.9628 54.4107Z" fill="#FFFDFB"/>
<path fill-rule="evenodd" clip-rule="evenodd" d="M54.4745 94.5787C65.9443 92.8119 75.629 85.634 80.8393 75.7342C81.1769 75.904 81.5583 75.9997 81.962 75.9997C84.2798 75.9997 87.7008 75.3252 90.6143 73.2285C93.6553 71.04 95.9685 67.4145 95.9685 61.9997C95.9685 56.724 94.0079 53.2505 91.1192 51.2929C89.1077 49.9297 86.8551 49.4452 84.9633 49.4105V45.6554C84.9633 43.0844 82.8791 41.0002 80.3081 41.0002H74.0326C76.7415 57.107 75.8203 85.4317 54.4745 94.5787ZM84.9633 58.9835V54.4107C86.033 54.4443 87.2742 54.7281 88.312 55.4314C89.5919 56.2988 90.9662 58.0753 90.9662 61.9997C90.9662 65.7849 89.4443 67.9093 87.6914 69.1708C86.1766 70.261 84.3691 70.7815 82.9303 70.9428C84.2471 67.2008 84.9633 63.1758 84.9633 58.9835Z" fill="#FFE7CE"/>
<path d="M32.4385 15C31.1045 16.3333 29.1369 19.9 31.9382 23.5C34.7395 27.1 32.7719 31 31.4379 32.5" stroke="#D7AD87" stroke-width="4" stroke-linecap="round"/>
<path d="M49.8705 15C48.5365 16.3333 46.5689 19.9 49.3702 23.5C52.1715 27.1 50.2039 31 48.8699 32.5" stroke="#D7AD87" stroke-width="4" stroke-linecap="round"/>
<path d="M67.8788 15C66.5448 16.3333 64.5772 19.9 67.3785 23.5C70.1798 27.1 68.2122 31 66.8782 32.5" stroke="#D7AD87" stroke-width="4" stroke-linecap="round"/>
<ellipse cx="17.1275" cy="10.1202" rx="17.1275" ry="10.1202" transform="matrix(0.75331 0.657666 -0.658013 0.753007 36.2524 48.0002)" fill="#D9D9D9"/>
<path d="M41.6517 69.0307C38.9777 62.7935 34.8182 60.1215 31.847 59.2306C33.6297 57.448 42.0807 60.2253 44.3257 65.4671C46.9997 71.7104 51.4564 75.5641 55.0217 77.049C50.8622 76.752 43.9161 74.3125 41.6517 69.0307Z" fill="#B5B5B5"/>
<ellipse cx="17.1275" cy="10.1202" rx="17.1275" ry="10.1202" transform="matrix(0.75331 0.657666 -0.658013 0.753007 36.2524 48.0002)" fill="#7C6152"/>
<path d="M41.6517 69.0307C38.9777 62.7935 34.8182 60.1216 31.847 59.2306C33.6297 57.448 42.0807 60.2253 44.3257 65.4671C46.9997 71.7104 51.4564 75.5641 55.0217 77.049C50.8622 76.752 43.9161 74.3125 41.6517 69.0307Z" fill="#4D423C"/>
<path fill-rule="evenodd" clip-rule="evenodd" d="M51.1554 59.2637C57.6177 64.9055 60.5182 72.3846 58.2592 76.8676C60.1251 75.8161 61.9816 74.448 63.7197 72.7887C70.5615 66.2569 72.9775 57.686 69.116 53.645C65.2604 49.6103 56.6045 51.617 49.7676 58.1249C50.2357 58.4855 50.6989 58.8652 51.1554 59.2637Z" fill="#7C6152"/>
<path fill-rule="evenodd" clip-rule="evenodd" d="M57.4699 67.5934C56.9344 66.4527 56.2596 65.3017 55.455 64.1687C61.3723 62.0183 64.2086 58.3219 65.3164 55.5645C66.9317 57.4999 63.4015 65.6618 57.9761 67.4234C57.8058 67.4787 57.6371 67.5354 57.4699 67.5934Z" fill="#4D423C"/>
<path fill-rule="evenodd" clip-rule="evenodd" d="M12.9293 45.6554C12.9293 43.0844 15.0135 41.0002 17.5845 41.0002H80.3076C82.8786 41.0002 84.9628 43.0844 84.9628 45.6554V49.0002H12.9293V45.6554Z" fill="#C29266"/>
<path d="M29.5996 62.1017C29.2004 60.8149 29.4237 58.5298 29.925 58.0005" stroke="white" stroke-linecap="round" stroke-linejoin="round"/>
<circle cx="0.5" cy="0.5" r="0.5" transform="matrix(0.714094 -0.70005 0.700382 0.713768 29.3687 63.3362)" fill="white"/>
<path d="M60.7689 53.3567C61.9942 52.7953 64.2903 52.7226 64.88 53.1516" stroke="white" stroke-linecap="round" stroke-linejoin="round"/>
<circle cx="0.5" cy="0.5" r="0.5" transform="matrix(0.786433 0.617675 -0.618031 0.786154 59.5145 53.2871)" fill="white"/>
<path fill-rule="evenodd" clip-rule="evenodd" d="M74.9514 49.0002C74.7655 46.128 74.4399 43.4256 74.032 41.0002H80.3076C82.8785 41.0002 84.9627 43.0844 84.9627 45.6554V49.0002H74.9514Z" fill="#AD7251"/>
</g>
</svg>
