<svg width="30" height="30" viewBox="0 0 30 30" fill="none" xmlns="http://www.w3.org/2000/svg">
<path d="M12.1463 4.37615L21.8625 14.3436C22.0332 14.5187 22.1287 14.7535 22.1287 14.998C22.1287 15.2425 22.0332 15.4773 21.8625 15.6524L12.1463 25.6236C12.0668 25.7053 11.9717 25.7702 11.8667 25.8145C11.7618 25.8588 11.649 25.8816 11.535 25.8816C11.4211 25.8816 11.3083 25.8588 11.2033 25.8145C11.0983 25.7702 11.0032 25.7053 10.9238 25.6236C10.7602 25.4562 10.6687 25.2314 10.6687 24.9974C10.6687 24.7633 10.7602 24.5386 10.9238 24.3711L20.0606 14.998L10.9238 5.62677C10.7608 5.45942 10.6696 5.23506 10.6696 5.00146C10.6696 4.76786 10.7608 4.54349 10.9238 4.37615C11.0032 4.2945 11.0983 4.22961 11.2033 4.1853C11.3083 4.14099 11.4211 4.11816 11.535 4.11816C11.649 4.11816 11.7618 4.14099 11.8667 4.1853C11.9717 4.22961 12.0668 4.2945 12.1463 4.37615Z" fill="#1E50A7"/>
</svg>
